{"glyphs":{":":{"x_min":0,"x_max":145,"ha":145,"o":"m 73 250 q 92 250 106 236 q 120 221 120 202 q 120 184 104 168 q 89 151 72 151 q 52 151 38 164 q 25 176 25 196 q 25 214 39 232 q 53 250 73 250 z m 55 100 q 73 100 87 86 q 101 73 101 54 q 101 34 86 16 q 72 -1 50 -1 q 30 -1 18 14 q 7 28 7 47 q 7 69 20 84 q 32 100 55 100 z"},"$":{"x_min":0,"x_max":466,"ha":466,"o":"m 170 33 l 174 51 l 187 122 l 201 197 l 214 269 q 222 314 226 333 l 229 352 l 218 359 q 209 366 190 379 q 174 392 167 398 q 160 404 148 416 q 139 425 137 428 q 111 460 111 493 q 111 526 131 562 q 151 598 183 621 q 224 651 280 660 l 283 679 l 288 707 q 292 730 300 739 q 309 750 335 762 q 350 769 353 771 q 355 772 355 772 l 357 773 q 372 780 377 780 q 383 780 383 774 q 383 772 379 768 q 368 759 363 743 q 357 724 348 677 l 345 664 q 391 661 422 643 q 453 625 453 602 q 453 591 432 559 l 417 538 q 411 526 405 526 q 397 526 397 533 q 397 534 398 537 q 403 550 403 560 q 403 581 385 599 q 367 616 337 625 l 334 606 l 322 545 l 309 475 l 295 402 l 292 388 l 312 375 q 383 326 412 292 q 439 258 439 215 q 439 162 410 113 q 380 63 331 30 q 281 -3 222 -12 l 220 -26 q 211 -77 208 -91 q 205 -106 197 -115 q 183 -130 152 -146 q 134 -154 128 -154 q 122 -154 122 -149 q 122 -148 125 -142 q 136 -127 141 -110 q 147 -89 155 -46 l 160 -23 l 162 -13 q 94 -7 51 28 q 7 62 7 109 q 7 146 43 187 q 63 208 70 208 q 75 208 75 203 q 75 200 72 196 q 56 176 56 147 q 56 107 86 77 q 116 47 170 33 z m 230 38 l 228 25 l 232 25 q 276 25 312 44 q 348 62 369 95 q 389 127 389 167 q 389 208 368 237 q 346 267 284 312 l 279 316 l 276 304 l 267 250 l 254 182 l 242 111 q 236 74 230 38 z m 273 622 l 275 630 q 243 627 216 614 q 191 601 177 581 q 163 561 163 536 q 163 504 180 480 q 196 456 242 423 l 245 442 l 255 502 q 257 515 258 522 q 259 529 260 533 q 262 545 264 561 z"},"?":{"x_min":0,"x_max":310,"ha":310,"o":"m 181 586 q 203 586 224 578 q 244 571 260 558 q 276 544 286 526 q 296 507 296 484 q 296 439 284 410 q 271 380 250 358 q 230 335 206 316 q 181 298 156 276 q 132 255 111 227 q 90 199 78 158 l 59 158 q 64 190 78 215 q 91 240 109 262 q 127 285 147 306 q 167 326 184 349 q 200 372 210 399 q 221 426 221 460 q 221 496 194 520 q 168 545 132 545 q 107 545 88 530 q 69 514 56 491 q 44 468 38 442 q 31 416 31 395 q 31 357 43 323 l 23 318 q 19 341 16 364 q 13 388 13 412 q 13 447 26 478 q 38 510 60 534 q 83 558 114 572 q 145 586 181 586 z m 47 98 q 65 98 80 86 q 94 75 94 55 q 94 33 80 20 q 67 7 44 7 q 26 7 15 21 q 4 35 4 52 q 4 59 8 67 q 11 75 17 82 q 23 89 31 94 q 39 98 47 98 z"},"<":{"x_min":0,"x_max":557,"ha":557,"o":"m 59 220 l 59 261 l 486 481 l 486 430 l 115 241 l 115 240 l 486 51 l 486 0 z"},"'":{"x_min":0,"x_max":116,"ha":116,"o":"m 56 716 q 83 716 94 702 q 104 689 104 664 q 104 622 77 588 q 50 553 12 539 l 12 558 q 39 570 57 594 q 75 617 86 643 q 77 641 69 639 q 61 637 52 637 q 37 637 26 648 q 14 660 14 674 q 14 692 26 704 q 38 716 56 716 z"},"=":{"x_min":0,"x_max":328,"ha":328,"o":"m 34 110 l 30 113 q 48 137 66 146 q 83 156 104 158 q 125 161 150 159 q 176 157 209 157 q 233 157 252 159 q 271 161 294 167 l 300 163 q 295 153 282 140 q 268 128 256 120 q 240 117 220 116 q 200 115 179 115 q 158 115 138 116 q 117 117 100 117 q 81 117 66 114 q 50 111 34 110 z m 44 210 l 40 213 q 58 237 76 246 q 93 256 114 258 q 135 261 160 259 q 186 257 219 257 q 243 257 262 259 q 281 261 304 267 l 310 263 q 305 253 292 240 q 278 228 266 220 q 250 217 230 216 q 210 215 189 215 q 168 215 148 216 q 127 217 110 217 q 91 217 76 214 q 60 211 44 210 z"},"a":{"x_min":0,"x_max":329,"ha":329,"o":"m 319 49 q 310 40 299 30 q 288 19 276 10 q 263 1 250 -5 q 236 -11 223 -11 q 211 -11 204 -8 q 198 -4 194 2 q 191 9 189 18 q 187 26 185 36 q 177 24 170 15 q 162 6 152 0 q 143 -6 130 -9 q 116 -12 95 -12 q 51 -12 32 16 q 12 44 12 86 q 12 113 22 140 q 31 167 48 189 q 64 211 88 224 q 111 238 140 238 q 169 238 186 229 q 204 220 216 196 l 224 230 q 242 230 260 230 q 277 229 295 230 q 284 181 276 148 q 268 115 262 93 q 257 71 255 58 q 253 44 253 35 q 253 25 262 23 q 269 24 282 38 q 294 52 308 66 q 311 62 314 58 q 317 53 319 49 z m 86 72 q 86 63 87 52 q 88 42 92 33 q 95 24 102 18 q 109 12 121 12 q 140 12 154 28 q 168 45 178 68 q 187 90 192 114 q 196 138 196 154 q 196 163 196 174 q 195 184 192 192 q 189 200 182 206 q 176 211 164 211 q 143 211 128 196 q 113 180 104 158 q 95 137 90 113 q 86 89 86 72 z"},"L":{"x_min":0,"x_max":833,"ha":833,"o":"m 763 770 q 803 770 830 755 q 858 740 874 716 q 890 691 897 659 q 904 627 904 593 q 904 533 880 474 q 856 416 816 367 q 776 318 724 283 q 671 248 614 236 l 614 252 q 674 263 717 300 q 760 338 788 390 q 815 442 828 501 q 841 560 841 614 q 841 636 837 660 q 833 685 823 705 q 813 725 795 738 q 777 751 750 751 q 710 751 681 728 q 652 704 632 667 q 612 630 598 583 q 585 536 576 490 q 567 444 560 402 q 554 361 548 334 q 541 306 535 278 q 529 251 520 225 q 511 199 496 174 q 482 149 460 126 q 478 114 512 92 q 546 71 584 50 q 621 28 656 12 q 690 -4 709 -4 q 740 -4 761 18 q 782 40 790 68 l 814 65 q 803 31 784 9 q 766 -13 741 -26 q 716 -38 686 -43 q 657 -48 626 -48 q 603 -48 575 -36 q 547 -23 518 -6 q 488 11 460 28 q 433 46 412 56 q 367 5 303 -22 q 239 -49 170 -49 q 144 -49 114 -44 q 83 -39 57 -26 q 31 -13 14 9 q -4 31 -4 64 q -4 105 22 130 q 48 156 86 170 q 123 184 164 188 q 205 193 236 193 q 290 193 340 176 q 391 160 439 139 q 457 171 466 220 q 475 268 482 324 q 489 381 498 442 q 508 503 527 560 q 546 616 580 664 q 613 712 668 743 q 691 756 714 763 q 738 770 763 770 z m 20 68 q 20 40 35 22 q 50 3 72 -8 q 94 -19 120 -24 q 146 -28 168 -28 q 231 -28 290 -4 q 350 21 396 65 q 376 81 344 96 q 312 111 276 122 q 241 134 206 141 q 171 148 145 148 q 127 148 106 144 q 84 140 65 130 q 46 121 33 106 q 20 90 20 68 z"},"3":{"x_min":0,"x_max":310,"ha":310,"o":"m 80 223 q 78 259 89 284 q 100 309 120 324 q 139 340 165 347 q 191 354 220 354 q 253 354 276 330 q 299 306 299 274 q 299 233 280 203 q 260 173 226 155 q 249 128 260 106 q 272 83 272 47 q 272 11 256 -18 q 241 -46 216 -66 q 191 -86 160 -96 q 128 -107 95 -107 q 79 -107 63 -103 q 47 -99 34 -90 q 21 -82 12 -68 q 4 -55 4 -37 q 4 -10 18 2 q 33 14 59 14 q 75 14 86 -2 q 96 -17 96 -31 q 96 -43 86 -58 q 76 -72 68 -80 q 81 -86 96 -86 q 118 -86 136 -74 q 154 -62 166 -44 q 179 -26 186 -4 q 192 17 192 37 q 192 82 169 119 q 146 104 108 104 q 101 104 88 105 q 76 106 64 110 q 52 114 43 120 q 34 127 34 138 q 34 151 43 160 q 52 168 65 174 q 78 179 92 182 q 106 184 116 184 q 138 184 159 180 q 180 176 200 169 q 211 185 220 200 q 228 216 228 235 q 228 265 216 288 q 204 310 169 310 q 152 310 139 302 q 126 294 116 282 q 106 269 101 254 q 96 238 96 223 z m 65 150 q 63 147 59 145 q 55 143 59 138 q 64 132 75 130 q 86 127 91 127 q 105 127 123 130 q 141 132 154 137 q 142 147 126 151 q 109 155 94 155 q 86 155 79 154 q 72 152 65 150 z"},";":{"x_min":0,"x_max":174,"ha":174,"o":"m 106 221 q 125 221 138 208 q 150 194 150 175 q 150 155 138 138 q 125 122 103 122 q 83 122 72 136 q 60 151 60 170 q 60 190 72 206 q 85 221 106 221 z m 29 49 q 29 68 44 82 q 58 97 77 97 q 96 97 110 82 q 124 68 124 52 q 124 -6 90 -44 q 56 -83 5 -106 l 1 -86 q 27 -75 54 -52 q 80 -30 91 4 q 80 4 69 6 q 58 8 49 13 q 40 18 34 26 q 29 35 29 49 z"},"J":{"x_min":0,"x_max":545,"ha":545,"o":"m 545 895 q 572 895 596 890 q 619 885 641 877 q 663 869 685 860 q 707 851 732 844 q 714 828 694 812 q 674 795 656 777 q 637 759 622 738 q 606 718 596 695 q 584 663 579 630 q 574 596 569 563 q 557 480 544 393 q 531 306 504 226 q 477 145 429 76 q 381 8 300 -38 q 274 -53 237 -62 q 200 -70 170 -70 q 126 -70 96 -56 q 67 -41 48 -16 q 29 9 21 43 q 13 77 13 116 q 13 161 26 196 q 38 232 58 262 q 79 293 106 320 q 132 348 161 377 q 156 400 156 423 q 155 446 155 472 q 155 552 184 628 q 214 704 266 764 q 318 823 390 859 q 461 895 545 895 z m 178 448 q 178 432 179 418 q 180 403 182 388 q 215 408 252 422 q 288 435 326 438 l 331 422 q 305 417 266 405 q 227 393 186 367 q 195 329 215 294 q 235 260 257 227 l 238 220 q 214 249 197 282 q 180 315 166 349 q 144 329 122 296 q 100 263 82 226 q 65 188 54 150 q 43 112 43 82 q 43 25 76 -12 q 109 -48 166 -48 q 222 -48 264 -28 q 305 -8 334 26 q 364 60 384 106 q 404 151 418 202 q 432 254 442 308 q 451 363 460 414 q 469 466 479 512 q 489 559 503 594 q 526 652 559 698 q 592 743 635 788 q 603 812 562 821 q 520 830 481 830 q 404 830 347 796 q 290 762 252 707 q 215 652 196 584 q 178 516 178 448 z"},"V":{"x_min":0,"x_max":625,"ha":625,"o":"m 744 462 q 730 454 714 452 q 699 450 684 452 q 654 377 606 301 q 558 225 495 160 q 432 96 356 50 q 281 3 198 -14 q 203 -4 214 30 q 225 65 237 106 q 249 147 259 186 q 269 224 272 244 q 279 283 288 324 q 297 366 304 408 q 312 450 317 492 q 322 534 322 575 q 322 606 320 644 q 317 681 306 714 q 294 747 270 769 q 246 791 203 791 q 164 791 136 773 q 107 755 86 725 q 65 695 51 657 q 37 619 29 580 q 21 541 18 504 q 14 467 14 438 q 14 396 24 354 q 34 312 51 272 q 68 231 90 193 q 112 155 136 122 l 112 110 q 58 190 26 282 q -6 373 -6 470 q -6 530 4 593 q 15 656 41 708 q 67 759 112 792 q 158 826 229 826 q 279 826 313 795 q 347 764 368 719 q 389 674 398 624 q 407 574 407 536 q 407 473 396 410 q 386 348 370 286 q 355 225 338 164 q 320 102 307 41 q 427 113 519 220 q 611 328 662 458 q 602 482 572 531 q 541 580 541 644 q 541 666 546 688 q 550 709 560 726 q 571 744 588 755 q 605 766 631 766 q 659 766 676 750 q 692 734 700 710 q 708 687 710 660 q 713 634 713 614 q 713 580 706 544 q 700 507 691 474 q 701 470 718 474 q 736 478 750 485 z m 592 608 q 592 561 608 528 q 623 495 670 478 q 682 511 688 546 q 695 582 695 617 q 695 629 694 645 q 694 661 690 676 q 687 690 678 700 q 669 710 653 710 q 637 710 626 699 q 614 688 606 672 q 599 656 596 638 q 592 621 592 608 z"},"\"":{"x_min":0,"x_max":254,"ha":254,"o":"m 209 454 q 205 454 205 461 l 204 478 q 203 486 203 524 q 203 554 205 564 q 205 575 209 580 q 213 583 223 587 l 237 592 q 244 594 246 595 q 249 596 250 596 q 251 597 252 597 q 259 600 263 600 q 271 600 271 593 q 271 584 261 551 l 254 526 q 237 467 231 461 q 224 454 209 454 z m 130 454 q 125 454 125 461 l 125 478 q 124 486 124 524 q 124 554 125 564 q 126 575 130 580 q 134 583 144 587 l 158 592 q 165 594 167 595 q 170 596 171 596 q 172 597 173 597 q 180 600 184 600 q 191 600 191 593 q 191 584 182 551 l 175 526 q 158 467 152 461 q 145 454 130 454 z"},"7":{"x_min":0,"x_max":305,"ha":305,"o":"m 44 336 q 92 331 140 328 q 188 325 236 325 q 256 325 275 328 q 294 330 314 332 q 289 292 256 250 q 223 207 192 163 q 160 119 134 74 q 108 28 96 -17 q 114 -7 128 -7 q 151 -7 162 -24 q 173 -41 173 -61 q 173 -80 158 -95 q 144 -110 125 -110 q 111 -110 101 -104 q 91 -97 84 -87 q 77 -77 74 -65 q 71 -53 71 -41 q 71 -4 88 35 q 105 74 129 112 q 153 149 180 184 q 207 218 228 247 q 184 247 142 250 q 99 254 56 254 q 46 254 37 251 q 32 243 30 236 q 29 228 25 220 l 6 223 q 16 251 26 279 q 36 307 44 336 z"},"S":{"x_min":0,"x_max":674,"ha":674,"o":"m 875 772 q 889 772 904 769 q 918 766 930 758 q 941 751 948 739 q 955 727 955 710 q 955 680 937 664 q 919 648 889 648 q 874 648 860 662 q 847 676 847 691 q 847 705 852 718 q 858 732 863 746 l 851 748 q 814 748 792 726 q 771 703 758 664 q 745 625 738 573 q 731 521 724 463 q 718 405 708 343 q 699 281 681 223 q 663 165 634 113 q 604 61 557 22 q 510 -17 442 -40 q 375 -62 282 -62 q 242 -62 194 -53 q 146 -44 105 -24 q 64 -3 36 31 q 8 65 8 115 q 8 164 34 206 q 60 247 100 277 q 140 307 188 324 q 237 340 282 340 q 309 340 343 332 q 377 324 408 308 q 438 293 459 269 q 480 245 480 212 q 480 184 467 165 q 454 146 434 134 q 414 122 390 116 q 366 109 343 107 l 340 126 q 359 131 380 136 q 402 140 420 149 q 437 158 448 174 q 460 190 460 217 q 460 241 446 258 q 433 274 413 284 q 393 293 370 298 q 347 302 328 302 q 288 302 236 290 q 185 278 139 254 q 93 230 62 194 q 30 157 30 108 q 30 60 60 32 q 91 3 134 -12 q 178 -28 226 -33 q 273 -38 308 -38 q 388 -38 440 -12 q 493 15 526 60 q 559 105 578 164 q 596 224 608 290 q 621 355 632 422 q 643 489 661 550 q 679 612 708 663 q 738 714 788 746 q 828 772 875 772 z"},"}":{"x_min":0,"x_max":314,"ha":314,"o":"m 265 236 q 235 234 218 226 q 201 217 191 206 q 181 195 178 182 q 174 168 171 156 q 168 142 166 123 q 165 104 162 73 q 157 31 154 6 q 151 -20 146 -40 q 139 -79 122 -102 q 104 -124 82 -136 q 60 -148 36 -152 q 13 -155 -6 -155 l -2 -128 q 48 -121 66 -100 q 84 -78 90 -48 q 93 -28 95 -3 q 97 22 99 42 q 99 52 100 65 q 101 78 102 92 q 104 106 105 120 q 106 133 108 142 q 115 181 136 210 q 158 240 198 249 l 199 253 q 141 267 144 339 q 145 365 156 397 q 168 429 177 460 q 183 482 191 510 q 199 539 200 561 q 202 593 186 609 q 170 625 139 630 l 145 657 q 163 657 184 654 q 205 650 222 640 q 239 629 250 610 q 260 592 258 561 q 257 534 248 498 q 238 463 228 428 q 221 406 212 376 q 204 347 203 328 q 202 301 220 284 q 237 268 271 265 z"},"Z":{"x_min":0,"x_max":914,"ha":914,"o":"m 558 320 l 667 320 l 677 354 q 686 385 697 408 q 708 430 722 450 q 735 469 752 487 q 770 505 793 526 q 746 544 708 568 q 670 592 635 618 q 600 643 566 667 q 532 691 494 710 q 456 729 412 740 q 368 752 312 752 q 267 752 216 736 q 165 721 122 692 q 78 664 49 624 q 20 583 20 532 q 20 490 38 462 q 55 434 84 416 q 112 399 148 392 q 183 384 218 384 q 256 384 297 392 q 338 400 374 416 q 409 432 436 457 q 462 482 473 515 l 496 511 q 482 470 450 442 q 417 413 376 395 q 334 377 288 369 q 243 361 205 361 q 166 361 130 371 q 93 381 64 402 q 36 423 18 454 q 1 486 1 529 q 1 575 19 613 q 37 651 67 680 q 97 710 136 732 q 176 753 218 767 q 261 781 304 788 q 348 794 386 794 q 453 794 500 782 q 548 771 583 752 q 618 733 645 709 q 672 685 700 660 q 728 635 760 612 q 792 588 838 570 q 858 590 890 600 q 921 610 950 610 q 958 610 970 608 q 982 606 994 602 q 1005 597 1013 590 q 1021 582 1021 571 q 1022 538 1000 522 q 979 505 948 500 q 916 495 882 500 q 847 504 823 512 q 808 494 796 471 q 784 448 775 422 q 766 397 758 371 q 750 345 742 320 l 836 320 l 823 295 l 733 295 q 715 242 682 204 q 650 165 608 127 q 626 111 651 91 q 676 71 704 54 q 731 36 759 24 q 787 12 812 12 q 825 12 838 21 q 851 30 862 42 q 873 53 880 64 q 886 76 886 82 l 901 78 q 882 31 843 2 q 804 -28 752 -28 q 714 -28 684 -21 q 654 -14 630 -2 q 605 11 584 28 q 563 45 542 64 q 515 42 492 25 q 470 8 442 -4 q 415 -17 378 -24 q 341 -30 286 -31 q 250 -31 208 -26 q 165 -20 128 -4 q 91 12 66 42 q 42 71 42 119 q 42 165 68 192 q 94 220 132 235 q 171 250 215 254 q 259 259 294 259 q 336 259 376 250 q 415 240 452 224 q 490 208 525 187 q 560 166 594 143 q 630 185 642 222 q 655 259 662 295 l 545 295 z m 64 119 q 64 81 84 56 q 105 32 136 18 q 166 4 202 -2 q 237 -8 266 -8 q 308 -8 342 -4 q 377 1 408 11 q 439 21 468 38 q 497 54 527 78 q 499 106 461 130 q 423 155 381 174 q 339 193 296 204 q 252 215 212 215 q 188 215 162 212 q 136 208 114 198 q 93 187 78 168 q 64 149 64 119 z m 857 558 q 866 555 888 548 q 910 542 932 540 q 955 538 972 544 q 989 550 989 572 q 989 584 978 586 q 968 589 960 589 q 934 589 906 582 q 877 575 857 558 z"},"x":{"x_min":0,"x_max":302,"ha":302,"o":"m 220 228 q 230 234 241 234 q 252 234 262 228 q 272 223 278 212 q 285 202 286 186 q 286 173 280 163 q 274 153 265 148 q 256 142 244 141 q 233 140 223 146 q 209 158 206 170 q 202 183 200 193 q 191 182 182 167 q 172 152 181 134 q 193 114 208 92 q 222 71 239 53 q 243 46 248 48 q 252 51 256 58 q 261 64 266 73 q 270 82 275 88 l 294 84 q 281 58 268 38 q 256 17 235 2 q 224 -9 204 -7 q 184 -5 173 10 q 164 21 156 36 q 148 51 142 65 q 130 51 120 35 q 109 19 95 10 q 81 -5 58 -6 q 35 -8 17 6 q 10 15 6 26 q 3 38 4 50 q 5 61 11 70 q 17 79 29 84 q 42 89 55 88 q 68 86 77 78 q 86 71 90 58 q 95 46 91 30 q 100 42 110 54 q 121 66 126 80 q 129 89 124 97 q 118 105 114 112 q 108 122 99 136 q 90 149 81 160 q 72 170 63 173 q 54 176 48 166 q 45 157 44 156 q 43 155 41 146 l 20 146 q 29 207 91 233 q 106 236 116 230 q 127 224 135 214 q 143 204 149 192 q 155 180 161 170 q 172 185 186 202 q 199 220 220 228 z"},")":{"x_min":0,"x_max":348,"ha":348,"o":"m 50 -22 q 38 -22 24 -16 q 11 -11 11 5 q 11 14 17 22 q 23 30 31 34 q 44 36 52 34 q 61 33 68 30 q 74 26 78 22 q 82 17 86 13 q 92 10 98 10 q 107 10 116 15 q 125 20 133 25 q 150 46 168 88 q 186 129 202 182 q 219 234 234 293 q 248 352 258 407 q 269 462 275 508 q 281 555 281 584 q 281 610 275 636 q 269 661 253 684 q 240 684 228 681 q 216 678 203 678 q 191 678 182 684 q 173 689 173 702 q 173 711 178 719 q 183 727 191 731 q 236 731 264 703 q 291 675 307 635 q 323 595 328 550 q 334 506 334 472 q 334 434 326 382 q 319 331 303 276 q 287 221 264 168 q 241 115 209 72 q 177 30 138 4 q 98 -22 50 -22 z"},"&":{"x_min":0,"x_max":912,"ha":912,"o":"m 474 778 q 569 778 646 746 q 723 713 777 656 q 831 599 860 520 q 890 441 890 348 q 890 272 870 204 q 849 135 808 83 q 767 31 706 0 q 645 -30 564 -30 q 527 -30 494 -13 q 460 4 434 29 q 388 2 338 -13 q 287 -28 233 -28 q 188 -28 146 -20 q 105 -12 74 8 q 42 28 23 62 q 4 97 4 151 q 4 199 29 242 q 54 286 92 313 q 67 374 67 437 q 67 522 102 586 q 137 650 194 693 q 251 736 324 757 q 397 778 474 778 z m 91 444 q 91 413 96 384 q 101 354 110 325 q 155 342 200 360 q 245 379 293 388 q 298 425 311 472 q 324 519 347 561 q 370 603 404 632 q 438 661 486 661 q 526 661 542 640 q 558 619 558 581 q 558 541 540 511 q 521 481 492 458 q 464 436 430 419 q 396 402 365 388 q 374 341 384 303 q 394 265 408 230 q 422 195 442 161 q 461 127 490 88 q 512 104 532 124 q 553 145 570 169 q 586 193 597 220 q 608 246 610 275 q 601 264 587 259 q 573 254 559 254 q 530 254 514 271 q 499 288 499 317 q 499 349 522 370 q 544 391 575 391 q 593 391 606 384 q 620 377 629 365 q 638 353 643 338 q 648 323 648 307 q 648 275 635 242 q 622 209 602 178 q 581 146 556 118 q 532 91 509 72 q 541 48 577 29 q 613 10 655 10 q 707 10 746 43 q 785 76 810 124 q 836 172 849 226 q 862 281 862 323 q 862 413 837 492 q 812 570 762 628 q 713 687 640 721 q 568 755 473 755 q 402 755 334 736 q 265 717 211 678 q 157 639 124 580 q 91 522 91 444 z m 212 193 q 186 205 162 224 q 139 242 122 266 q 111 240 101 213 q 91 186 91 157 q 91 125 104 96 q 118 67 140 44 q 163 22 192 8 q 221 -5 252 -5 q 297 -5 338 12 q 378 28 419 44 q 392 77 370 116 q 347 154 330 195 q 313 236 304 280 q 294 323 294 366 q 250 354 210 336 q 169 318 134 287 q 148 260 174 244 q 199 228 222 210 z m 365 454 l 365 412 q 392 421 421 436 q 450 451 474 472 q 498 492 514 519 q 529 546 529 580 q 529 590 527 600 q 525 611 520 620 q 516 629 508 634 q 500 640 488 640 q 453 640 430 621 q 406 602 392 574 q 377 546 371 514 q 365 481 365 454 z"},"_":{"x_min":0,"x_max":500,"ha":500,"o":"m 0 -193 l 0 -133 l 500 -133 l 500 -193 z"},"v":{"x_min":0,"x_max":280,"ha":280,"o":"m 206 246 q 221 255 240 250 q 259 244 265 227 q 274 209 270 190 q 266 170 257 152 q 237 108 204 74 q 171 39 132 16 q 112 4 89 -3 q 66 -10 43 -7 q 35 -4 32 2 q 29 8 28 16 q 27 23 28 32 q 28 40 28 47 q 32 69 38 98 q 45 126 49 148 q 53 171 52 182 q 52 193 42 182 q 28 171 22 164 q 16 158 7 149 l 7 179 q 36 211 82 230 q 93 237 110 233 q 126 229 128 215 q 132 191 130 168 q 127 144 121 121 q 115 98 109 74 q 103 51 101 28 q 143 46 177 76 q 211 107 226 149 q 220 153 214 156 q 207 160 200 164 q 194 167 189 173 q 184 179 181 190 q 179 207 185 224 q 191 240 206 246 z"},"O":{"x_min":0,"x_max":716,"ha":716,"o":"m 440 613 q 483 587 496 550 q 510 514 510 466 q 510 432 498 394 q 487 357 466 325 q 445 293 414 272 q 383 251 344 251 q 309 251 284 268 q 259 285 242 311 q 226 337 218 369 q 210 401 210 430 q 210 505 237 572 q 264 640 312 690 q 359 740 424 770 q 489 799 566 799 q 623 799 665 774 q 707 749 734 710 q 762 670 775 620 q 788 570 788 520 q 788 458 771 392 q 754 327 722 266 q 691 204 648 150 q 604 95 550 54 q 497 13 436 -10 q 374 -34 307 -34 q 241 -34 186 -12 q 132 10 93 50 q 54 90 33 145 q 12 200 12 266 q 12 301 18 343 q 24 385 36 428 q 49 472 70 512 q 90 553 118 586 q 147 618 184 638 q 222 658 270 660 l 259 636 q 226 633 202 614 q 177 595 159 566 q 141 536 130 500 q 118 463 111 424 q 104 386 101 350 q 98 313 98 284 q 98 227 114 175 q 129 123 160 82 q 191 42 238 18 q 284 -6 347 -6 q 406 -6 455 18 q 504 41 544 81 q 583 121 612 172 q 642 224 662 280 q 682 336 692 392 q 702 449 702 498 q 702 541 692 588 q 682 635 660 674 q 637 713 600 738 q 564 764 510 764 q 448 764 396 734 q 344 704 306 656 q 269 608 248 549 q 228 490 228 432 q 228 406 234 378 q 241 349 256 326 q 270 302 292 287 q 314 272 346 272 q 378 272 403 295 q 428 318 446 351 q 463 384 472 420 q 482 457 482 484 q 482 519 472 550 q 462 580 430 599 z"},"(":{"x_min":0,"x_max":348,"ha":348,"o":"m 294 731 q 307 731 320 726 q 334 720 334 704 q 334 695 328 687 q 321 679 313 676 q 301 674 292 675 q 283 676 277 680 q 271 683 266 688 q 262 692 258 696 q 255 698 252 699 q 250 700 246 700 q 237 700 228 694 q 219 689 211 684 q 194 663 176 622 q 159 580 142 528 q 126 475 112 416 q 97 357 86 302 q 76 247 70 200 q 64 153 64 125 q 64 99 70 74 q 76 48 91 25 q 104 25 116 28 q 129 31 142 31 q 153 31 162 26 q 172 20 172 7 q 172 -2 167 -10 q 162 -18 154 -22 q 109 -22 82 6 q 54 34 38 74 q 22 115 16 160 q 11 204 11 238 q 11 276 18 327 q 26 378 42 433 q 57 488 80 542 q 104 595 136 637 q 167 679 206 705 q 246 731 294 731 z"},"C":{"x_min":0,"x_max":581,"ha":581,"o":"m 553 130 q 527 97 494 70 q 460 42 421 22 q 382 3 340 -8 q 299 -19 257 -19 q 195 -19 149 6 q 103 30 72 71 q 41 112 26 165 q 11 218 11 274 q 11 337 27 402 q 43 468 72 528 q 102 589 144 642 q 186 695 238 734 q 290 774 352 797 q 413 820 482 820 q 571 820 625 771 q 679 722 679 631 q 679 578 660 516 q 642 454 608 400 q 573 347 524 311 q 475 275 414 275 q 359 275 330 309 q 301 343 301 396 q 301 434 319 476 q 337 518 367 553 q 397 588 435 611 q 473 634 512 634 q 519 634 534 632 q 549 631 553 626 l 545 605 q 536 607 527 608 q 518 610 508 610 q 471 610 440 586 q 408 561 384 526 q 361 490 348 450 q 334 410 334 378 q 334 342 352 318 q 371 295 409 295 q 463 295 509 326 q 555 358 588 406 q 622 454 641 510 q 660 565 660 613 q 660 701 616 750 q 571 799 480 799 q 419 799 367 774 q 315 750 274 708 q 232 667 200 613 q 168 559 147 500 q 126 441 115 382 q 104 323 104 271 q 104 221 114 175 q 125 129 150 94 q 174 58 214 37 q 253 16 310 16 q 344 16 376 26 q 408 37 437 54 q 466 72 492 95 q 517 118 538 143 z"},"W":{"x_min":0,"x_max":978,"ha":978,"o":"m 1116 562 q 1105 553 1092 547 q 1080 541 1068 537 q 1056 533 1046 532 q 1036 531 1030 532 q 1021 488 1006 432 q 990 375 967 316 q 944 257 914 200 q 883 144 844 100 q 805 55 757 28 q 709 1 652 1 q 611 1 586 22 q 561 44 548 76 q 535 109 531 146 q 527 183 527 214 q 527 345 562 470 q 596 595 671 703 q 603 643 549 558 q 495 472 451 376 q 407 281 370 184 q 333 86 300 1 l 226 1 q 242 73 260 148 q 279 222 296 298 q 312 373 323 448 q 334 524 334 599 q 334 631 328 662 q 322 693 308 718 q 293 742 268 757 q 243 772 204 772 q 149 772 110 739 q 70 706 44 658 q 19 610 7 555 q -5 500 -5 455 q -5 370 26 292 q 58 214 121 157 l 94 145 q 59 191 36 229 q 14 267 0 306 q -13 344 -18 388 q -24 431 -24 488 q -24 541 -4 597 q 15 653 50 699 q 84 745 132 774 q 180 804 238 804 q 289 804 322 784 q 356 763 376 730 q 397 696 405 654 q 413 612 413 569 q 413 521 406 473 q 400 425 390 377 q 381 329 370 282 q 359 235 350 188 q 384 264 420 350 q 455 435 500 515 q 544 595 600 664 q 656 733 733 778 q 741 782 750 782 l 768 781 q 751 756 730 734 q 709 711 694 684 q 669 641 654 581 q 638 521 629 456 q 620 392 617 329 q 614 266 614 217 q 614 191 618 165 q 622 139 633 118 q 644 97 664 84 q 683 71 715 71 q 758 71 795 96 q 832 121 862 162 q 893 202 917 253 q 941 304 959 356 q 977 407 988 454 q 1000 501 1006 535 q 973 540 945 560 q 917 579 896 607 q 875 635 863 668 q 851 700 851 732 q 851 771 868 800 q 886 830 930 830 q 959 830 979 816 q 999 801 1012 777 q 1024 753 1030 724 q 1035 694 1037 664 q 1039 634 1038 606 q 1038 578 1036 559 q 1043 559 1053 562 q 1063 564 1072 568 q 1082 572 1091 576 q 1100 580 1106 583 z m 901 698 q 901 674 909 651 q 917 628 932 610 q 946 591 966 578 q 985 564 1009 560 q 1011 580 1012 599 q 1013 618 1013 637 q 1013 651 1011 676 q 1009 702 1003 728 q 997 753 986 772 q 974 791 954 791 q 937 791 926 781 q 916 771 910 757 q 905 743 903 726 q 901 710 901 698 z"},"A":{"x_min":0,"x_max":997,"ha":997,"o":"m 811 785 q 831 790 860 794 q 890 799 916 799 q 928 799 940 796 q 952 793 962 785 l 950 769 q 936 772 922 773 q 909 774 895 774 q 881 774 868 773 q 855 772 841 769 q 918 709 948 635 q 979 561 979 464 q 979 412 970 357 q 960 302 946 246 q 932 191 916 136 q 899 82 884 32 q 904 32 922 32 q 940 31 959 28 l 947 5 q 888 11 824 6 q 761 2 703 2 q 699 2 698 4 q 697 7 698 10 q 698 14 698 18 q 699 21 697 24 q 720 30 744 30 q 768 29 791 32 q 811 86 828 142 q 845 197 857 254 q 750 255 684 256 q 618 256 578 256 q 538 255 518 254 q 498 254 482 254 q 456 202 422 154 q 387 107 343 71 q 299 35 246 14 q 194 -8 133 -8 q 112 -8 91 -2 q 70 5 52 18 q 35 30 24 48 q 14 67 14 90 q 14 118 31 139 q 48 160 78 160 q 91 160 103 154 q 115 148 124 138 q 133 128 138 116 q 144 103 144 90 q 144 64 126 46 q 108 28 85 20 q 102 17 118 15 q 135 13 151 13 q 212 13 259 44 q 306 76 344 126 q 382 177 413 241 q 444 305 472 370 q 501 436 530 496 q 558 557 592 601 q 630 652 679 694 q 728 736 782 768 q 750 788 714 794 q 678 800 641 800 q 583 800 525 790 q 467 779 416 750 q 371 723 332 676 q 293 628 265 572 q 237 516 221 456 q 205 397 205 346 q 205 317 208 297 q 210 277 215 260 q 220 244 226 228 q 233 212 241 192 l 226 188 q 200 233 192 282 q 185 330 185 380 q 185 477 220 558 q 254 638 314 696 q 374 755 455 788 q 536 820 629 820 q 654 820 680 816 q 706 813 730 808 q 755 802 776 796 q 796 790 811 785 z m 803 754 q 740 722 695 666 q 650 611 616 545 q 581 479 554 410 q 526 341 498 282 l 863 282 q 873 321 884 364 q 896 408 896 449 q 896 494 894 534 q 893 575 884 612 q 875 650 856 684 q 837 719 803 754 z"},"f":{"x_min":0,"x_max":202,"ha":202,"o":"m 20 220 l 83 220 q 94 289 110 364 q 127 440 150 512 q 172 584 202 647 q 232 710 271 755 q 277 761 285 770 q 293 778 303 785 q 313 792 323 797 q 333 802 342 802 q 363 802 378 790 q 393 778 393 756 q 393 737 380 724 q 367 710 347 710 q 328 710 312 726 q 296 742 300 762 q 263 705 241 640 q 219 574 204 504 q 190 434 180 362 q 169 289 157 220 l 218 220 l 212 194 l 152 194 q 146 162 139 133 q 132 104 123 77 q 114 50 103 22 q 92 -5 77 -34 q 69 -49 58 -66 q 47 -84 34 -99 q 20 -114 3 -124 q -14 -134 -33 -134 q -53 -134 -68 -124 q -83 -113 -83 -91 q -83 -75 -69 -61 q -55 -47 -38 -47 q -16 -47 -2 -58 q 11 -69 6 -92 q 24 -81 34 -56 q 44 -31 51 6 q 58 42 64 90 q 70 137 79 194 l 15 194 z"},"Q":{"x_min":0,"x_max":714,"ha":714,"o":"m 1086 -36 q 1042 -86 992 -112 q 941 -138 887 -149 q 833 -160 778 -161 q 723 -162 670 -161 q 617 -160 562 -148 q 508 -135 456 -120 q 404 -105 356 -92 q 309 -80 270 -77 q 260 -86 242 -100 q 223 -113 198 -126 q 172 -138 142 -148 q 111 -157 77 -157 q 55 -157 34 -146 q 12 -135 12 -109 q 12 -89 26 -76 q 41 -62 64 -54 q 86 -46 114 -42 q 141 -39 168 -38 q 195 -37 218 -38 q 241 -39 254 -40 q 263 -34 270 -26 q 276 -18 284 -12 q 268 -8 255 -5 q 242 -2 230 2 q 218 6 206 12 q 194 17 181 26 q 114 71 84 140 q 53 208 53 286 q 53 321 62 364 q 71 406 88 450 q 104 493 128 534 q 152 576 182 608 q 213 640 249 660 q 285 681 325 682 q 375 744 442 783 q 509 822 590 822 q 650 822 697 802 q 744 781 777 745 q 810 709 827 660 q 844 610 844 552 q 844 504 832 452 q 819 399 796 346 q 774 292 743 241 q 712 190 674 146 q 637 102 595 67 q 553 32 509 11 q 463 -11 412 -16 q 362 -22 313 -17 l 292 -41 q 361 -47 434 -56 q 507 -66 580 -75 q 654 -84 728 -91 q 801 -98 870 -98 q 916 -98 948 -92 q 980 -85 1002 -74 q 1025 -62 1041 -48 q 1057 -34 1072 -19 z m 462 164 q 429 131 398 91 q 366 51 335 10 q 345 8 358 8 q 370 8 380 8 q 440 8 492 30 q 543 53 585 91 q 627 129 659 180 q 691 230 712 286 q 734 341 745 398 q 756 456 756 508 q 756 553 747 602 q 738 652 716 692 q 694 733 657 760 q 620 786 564 786 q 499 786 446 757 q 392 728 354 682 q 316 635 295 576 q 274 516 274 455 q 274 429 279 398 q 284 368 296 342 q 308 317 330 300 q 351 283 384 283 q 420 283 448 309 q 475 335 494 372 q 512 409 521 450 q 530 491 530 520 q 530 553 522 574 q 515 595 505 608 q 495 620 486 626 q 476 633 473 636 l 484 656 q 502 645 516 627 q 531 609 541 586 q 551 564 556 538 q 562 513 562 488 q 562 453 549 413 q 536 373 513 339 q 490 305 457 282 q 424 260 384 260 q 346 260 321 278 q 296 295 280 322 q 265 350 258 383 q 252 416 252 446 q 252 504 270 558 q 288 611 314 662 q 266 645 232 604 q 199 563 178 510 q 157 458 148 402 q 138 347 138 302 q 138 241 154 188 q 171 136 212 89 q 218 82 230 71 q 241 60 254 50 q 268 39 282 30 q 296 21 308 18 q 312 22 328 44 q 345 65 366 91 q 386 117 406 141 q 426 165 438 174 z m 79 -132 q 97 -132 116 -127 q 136 -122 154 -114 q 173 -106 190 -96 q 208 -86 223 -76 q 187 -69 150 -67 q 120 -66 91 -76 q 62 -85 46 -96 q 30 -108 35 -119 q 40 -130 79 -132 z"},"w":{"x_min":0,"x_max":360,"ha":360,"o":"m 264 209 q 267 224 278 232 q 289 240 302 240 q 316 241 328 234 q 341 228 346 214 q 355 182 348 146 q 340 111 323 82 q 307 56 284 30 q 261 4 229 -5 q 218 -7 202 -8 q 187 -8 178 4 q 166 18 162 37 q 158 56 158 73 q 138 53 122 34 q 107 15 84 1 l 14 0 l 49 182 q 38 174 28 163 q 18 152 6 140 q 3 146 1 150 q -1 153 -1 160 q 16 180 37 200 q 58 221 84 229 q 91 232 100 230 q 108 229 114 224 q 120 219 124 211 q 127 203 124 194 q 124 174 120 154 q 116 134 112 114 q 107 95 102 76 q 97 57 96 38 q 134 71 160 115 q 185 159 205 206 q 212 206 218 204 q 223 203 229 203 q 229 177 226 146 q 222 114 222 86 q 221 59 226 42 q 230 24 245 26 q 263 35 278 50 q 292 65 302 84 q 313 102 320 122 q 326 143 328 164 q 322 160 314 158 q 306 156 297 156 q 288 157 280 162 q 272 166 266 175 q 261 184 262 192 q 264 201 264 209 z"},"-":{"x_min":0,"x_max":196,"ha":196,"o":"m 35 186 l 184 186 l 163 138 l 14 137 z"},"E":{"x_min":0,"x_max":662,"ha":662,"o":"m 414 790 q 441 790 474 786 q 508 782 538 770 q 567 758 587 736 q 607 713 607 676 q 607 650 588 630 q 569 611 542 611 q 519 611 505 630 q 491 648 491 668 q 491 681 498 692 q 504 702 514 710 q 523 717 535 722 q 547 727 558 731 q 528 754 497 762 q 466 770 428 770 q 399 770 371 760 q 343 749 320 730 q 297 712 283 686 q 269 660 269 629 q 269 612 277 596 q 285 579 298 564 q 310 550 324 538 q 339 525 352 516 l 352 473 q 352 472 332 470 q 313 468 284 460 q 254 453 220 438 q 186 422 156 394 q 127 367 108 324 q 88 282 88 220 q 88 167 112 126 q 136 84 174 55 q 213 26 260 10 q 308 -5 356 -5 q 398 -5 441 8 q 484 20 518 45 q 553 70 574 106 q 596 143 596 190 q 596 227 583 254 q 570 280 548 297 q 526 314 496 322 q 467 331 433 331 q 408 331 380 324 q 352 316 327 302 q 302 287 283 266 q 264 246 258 220 l 238 220 q 238 252 260 277 q 282 302 314 319 q 345 336 380 345 q 414 354 440 354 q 478 354 515 346 q 552 337 582 318 q 611 299 629 268 q 647 237 647 193 q 647 147 628 113 q 609 79 578 54 q 547 29 507 13 q 467 -3 424 -12 q 382 -22 340 -26 q 299 -30 265 -30 q 212 -30 164 -14 q 115 3 78 34 q 42 66 20 110 q -2 155 -2 211 q -2 267 19 310 q 40 353 76 385 q 111 417 156 438 q 202 460 250 473 q 237 490 225 506 q 213 522 204 539 q 195 556 190 575 q 185 594 185 617 q 185 660 206 692 q 228 725 262 747 q 295 769 336 780 q 376 790 414 790 z"},"s":{"x_min":0,"x_max":242,"ha":242,"o":"m 154 246 q 166 246 180 244 q 193 241 204 234 q 216 228 224 218 q 232 208 232 193 q 232 179 221 172 q 210 166 193 164 q 174 163 162 176 q 150 188 152 200 q 155 211 160 217 q 164 223 178 228 l 156 229 q 148 229 138 226 q 128 224 119 220 q 110 215 104 208 q 98 201 98 191 q 98 180 106 173 q 115 166 128 160 q 140 155 155 150 q 170 144 182 135 q 195 126 204 113 q 212 100 212 79 q 212 57 200 40 q 189 24 172 12 q 155 1 134 -4 q 114 -10 95 -10 q 79 -10 63 -8 q 47 -7 34 -1 q 21 5 13 16 q 5 28 5 47 q 5 65 20 76 q 35 88 52 88 q 69 88 80 80 q 91 72 91 53 q 91 36 79 30 q 67 23 56 20 q 57 18 62 16 q 66 15 73 14 q 80 13 87 13 q 94 13 100 13 q 120 13 138 26 q 157 38 157 61 q 157 64 156 67 q 155 70 154 72 q 140 84 122 90 q 104 96 88 104 q 72 112 60 124 q 49 137 49 161 q 49 183 58 199 q 67 215 82 226 q 97 236 116 241 q 135 246 154 246 z"},">":{"x_min":0,"x_max":557,"ha":557,"o":"m 91 0 l 91 51 l 462 240 l 462 241 l 91 430 l 91 481 l 516 261 l 516 220 z"},"l":{"x_min":0,"x_max":176,"ha":176,"o":"m 97 121 q 92 100 88 81 q 84 62 83 48 q 82 34 85 28 q 88 21 96 26 q 110 30 123 50 q 136 69 144 85 l 163 85 q 155 65 141 44 q 127 22 110 7 q 92 -8 73 -12 q 54 -16 36 -1 q 22 13 18 30 q 13 48 15 70 q 17 93 24 121 q 30 149 38 184 l 154 690 l 221 690 z"},"8":{"x_min":0,"x_max":323,"ha":323,"o":"m 205 439 q 224 439 242 433 q 260 427 274 416 q 288 405 296 388 q 305 370 305 348 q 305 313 283 287 q 261 261 229 250 q 244 237 256 226 q 269 214 278 202 q 288 189 293 174 q 298 158 298 137 q 298 99 284 71 q 271 43 248 25 q 224 7 192 -2 q 161 -11 125 -11 q 74 -11 40 19 q 7 49 7 101 q 7 157 38 190 q 70 224 120 241 q 103 262 94 282 q 84 301 84 329 q 84 354 94 374 q 104 394 121 408 q 138 423 160 431 q 181 439 205 439 z m 31 104 q 31 60 61 36 q 91 12 133 12 q 175 12 204 38 q 233 64 233 107 q 233 128 222 144 q 212 161 196 175 q 181 189 164 202 q 146 214 133 227 q 112 216 94 206 q 75 197 61 184 q 47 170 39 151 q 31 132 31 104 z m 212 266 q 253 276 270 302 q 287 327 284 354 q 281 381 260 402 q 238 422 204 422 q 180 422 160 404 q 140 387 140 361 q 140 352 148 338 q 155 325 166 311 q 177 297 190 284 q 202 272 212 266 z"},"\\":{"x_min":0,"x_max":340,"ha":340,"o":"m 242 -85 q 242 -98 239 -104 q 235 -111 226 -116 l 211 -125 q 199 -132 196 -132 q 191 -132 191 -124 l 191 -110 q 191 -93 184 -10 q 183 7 175 83 q 170 131 167 156 l 154 276 q 153 288 151 305 q 150 314 146 349 q 129 497 128 513 l 114 632 q 104 714 100 753 l 99 764 l 99 771 q 99 784 113 792 q 134 805 145 805 q 150 805 153 801 q 155 796 155 780 q 158 723 166 619 q 168 593 170 566 q 172 540 174 528 q 175 516 177 491 q 181 441 187 381 q 189 360 192 331 q 195 302 197 284 q 206 202 217 115 q 220 93 223 70 q 226 48 230 18 q 234 -13 235 -26 q 242 -66 242 -85 z"},"e":{"x_min":0,"x_max":245,"ha":245,"o":"m 238 175 q 238 146 222 128 q 207 111 184 100 q 161 90 135 86 q 109 81 88 78 q 87 69 88 58 q 88 46 92 36 q 97 26 105 20 q 113 15 127 17 q 153 22 177 41 q 201 60 217 79 l 232 72 q 206 31 174 12 q 143 -8 97 -8 q 76 -8 60 0 q 44 9 33 23 q 22 37 16 55 q 11 73 11 92 q 11 121 24 148 q 36 174 56 194 q 76 214 102 226 q 129 238 158 238 q 173 238 187 234 q 201 231 212 224 q 224 216 231 204 q 238 192 238 175 z m 108 103 q 143 108 162 128 q 181 149 181 186 q 181 197 180 208 q 178 220 164 220 q 144 220 130 208 q 115 195 106 176 q 96 158 92 138 q 87 117 86 101 z"},"b":{"x_min":0,"x_max":287,"ha":287,"o":"m 101 197 q 121 213 142 224 q 163 234 191 234 q 233 234 254 210 q 275 187 275 146 q 275 112 262 83 q 250 54 228 33 q 206 12 176 0 q 147 -11 114 -11 q 63 -11 38 21 q 13 53 13 101 q 13 113 21 155 q 29 197 41 254 q 53 312 68 378 q 83 445 98 506 q 112 567 124 616 q 137 666 144 690 l 217 690 q 188 572 158 444 q 128 315 101 197 z m 72 58 q 72 38 79 25 q 86 12 109 12 q 133 12 150 28 q 167 45 178 68 q 188 92 192 118 q 197 143 197 162 q 197 179 186 194 q 176 208 157 208 q 138 208 122 190 q 107 172 96 148 q 84 123 78 98 q 72 73 72 58 z"},"%":{"x_min":0,"x_max":707,"ha":707,"o":"m 166 -23 l 139 1 l 586 606 l 615 583 z m 352 459 q 352 424 340 386 q 329 349 307 318 q 285 286 254 266 q 224 245 187 245 q 161 245 142 256 q 123 266 110 284 q 98 301 92 324 q 86 348 86 374 q 86 408 98 446 q 109 483 130 514 q 152 546 183 566 q 214 587 252 587 q 278 587 297 576 q 316 566 328 548 q 340 531 346 508 q 352 485 352 460 z m 292 485 q 292 498 290 512 q 289 525 284 535 q 279 545 270 552 q 261 558 246 558 q 219 558 200 534 q 181 511 169 479 q 157 447 152 414 q 146 380 146 359 q 146 345 148 330 q 149 316 154 304 q 158 292 168 284 q 177 276 192 276 q 220 276 239 301 q 258 326 270 360 q 282 394 287 429 q 292 464 292 484 z m 666 202 q 666 168 654 130 q 643 93 621 62 q 599 30 568 10 q 538 -11 500 -11 q 474 -11 456 0 q 437 10 425 28 q 413 45 407 68 q 401 91 401 117 q 401 151 412 189 q 424 227 445 258 q 466 289 496 310 q 527 330 565 330 q 592 330 611 320 q 630 309 642 292 q 654 274 660 251 q 666 228 666 203 z m 607 228 q 607 255 598 278 q 588 301 560 301 q 533 301 514 278 q 495 254 483 222 q 471 190 466 156 q 460 123 460 102 q 460 88 462 74 q 463 59 468 46 q 472 34 481 26 q 490 18 506 18 q 534 18 554 43 q 573 68 585 102 q 597 136 602 172 q 607 207 607 227 z"},"m":{"x_min":0,"x_max":510,"ha":510,"o":"m 504 68 q 495 55 486 42 q 477 29 466 18 q 455 8 442 2 q 429 -5 412 -5 q 402 -5 392 -4 q 382 -4 374 0 q 367 3 362 10 q 358 17 359 30 q 360 45 366 66 q 371 86 378 108 q 384 129 390 150 q 395 171 396 187 q 396 191 396 194 q 395 198 390 198 q 384 198 370 186 q 355 173 340 158 q 324 142 310 127 q 297 112 293 107 q 286 98 282 84 q 277 70 274 55 q 271 40 269 26 q 267 11 265 0 l 185 0 q 189 22 196 46 q 203 69 210 93 q 217 117 222 141 q 226 165 226 187 q 226 190 224 194 q 223 197 218 197 q 200 197 180 172 q 159 147 141 114 q 123 80 109 48 q 95 15 91 0 l 25 0 q 27 9 34 38 q 40 66 48 98 q 55 129 60 155 q 66 181 66 186 q 66 194 64 194 q 60 194 54 188 q 47 181 40 172 q 32 164 26 156 q 20 148 17 144 l 4 157 q 13 169 24 184 q 36 198 49 210 q 62 223 77 231 q 92 239 109 239 q 126 239 131 230 q 136 220 136 206 q 136 188 132 171 q 129 154 126 137 q 138 153 152 170 q 165 187 181 201 q 197 215 216 224 q 234 233 257 233 q 277 233 290 223 q 302 213 302 191 q 302 178 299 166 q 296 153 294 140 q 304 150 320 166 q 336 182 354 197 q 373 212 392 222 q 411 233 426 233 q 433 233 442 232 q 450 232 458 229 q 465 226 470 220 q 475 215 475 205 q 475 191 469 169 q 463 147 456 123 q 449 99 442 77 q 435 55 434 40 q 434 30 443 30 q 456 30 470 46 q 483 63 492 77 z"},"#":{"x_min":0,"x_max":441,"ha":441,"o":"m 441 367 l 356 367 l 317 235 l 395 235 l 384 182 l 302 182 l 252 14 l 215 14 l 263 182 l 158 182 l 109 14 l 71 14 l 120 182 l 30 182 l 42 235 l 136 235 l 176 367 l 87 367 l 99 420 l 191 420 l 235 569 l 273 569 l 228 420 l 332 420 l 376 569 l 414 569 l 371 420 l 452 420 z m 214 367 l 175 235 l 278 235 l 317 367 z"},",":{"x_min":0,"x_max":143,"ha":143,"o":"m 24 58 q 24 76 38 91 q 53 106 72 106 q 99 106 112 94 q 125 81 125 52 q 125 25 114 2 q 103 -21 85 -40 q 67 -58 44 -72 q 22 -87 0 -97 l -4 -78 q 9 -69 22 -60 q 36 -50 48 -40 q 61 -29 70 -16 q 80 -4 86 12 q 75 12 64 14 q 53 16 44 21 q 35 26 30 35 q 24 44 24 58 z"},"n":{"x_min":0,"x_max":338,"ha":338,"o":"m 227 234 q 245 243 267 238 q 289 234 298 211 q 302 185 296 152 q 289 118 283 90 q 277 61 276 44 q 274 28 288 37 q 300 46 306 54 q 312 62 317 71 q 319 71 323 68 q 327 65 332 62 q 315 36 286 15 q 258 -6 223 -4 q 210 -2 206 7 q 202 16 200 24 q 198 44 202 64 q 205 84 210 104 q 214 123 219 143 q 224 163 227 184 q 227 193 216 195 q 206 197 200 191 q 178 173 162 151 q 145 129 132 104 q 120 80 111 54 q 102 27 95 0 l 29 0 q 33 17 38 40 q 44 62 50 86 q 55 110 60 132 q 65 155 66 170 q 68 186 66 192 q 63 199 55 191 q 47 179 38 168 q 29 156 20 144 l 7 154 q 20 173 28 184 q 37 195 43 202 q 49 209 54 213 q 58 217 64 222 q 71 228 82 232 q 93 236 104 236 q 115 237 124 232 q 133 228 136 216 q 139 198 136 178 q 132 158 130 140 q 148 170 172 195 q 195 220 227 234 z"},"h":{"x_min":0,"x_max":319,"ha":319,"o":"m 101 126 q 110 142 124 162 q 138 181 156 198 q 174 215 195 227 q 216 239 238 239 q 257 239 265 228 q 273 218 274 200 q 274 183 269 162 q 264 141 258 120 q 252 98 247 79 q 242 60 242 48 q 242 47 243 41 q 244 35 253 35 q 272 35 282 46 q 291 57 299 68 l 307 56 q 294 31 268 16 q 243 0 211 0 q 191 0 183 12 q 175 23 174 41 q 173 59 178 81 q 183 103 189 124 q 195 145 200 164 q 205 182 205 192 q 205 194 204 199 q 204 204 199 204 q 186 204 173 192 q 160 180 147 161 q 134 142 122 118 q 109 95 99 72 q 89 50 82 30 q 74 11 70 1 l 7 1 q 23 88 43 174 q 63 260 84 346 q 106 432 127 518 q 148 604 166 690 l 235 690 z"},"z":{"x_min":0,"x_max":304,"ha":304,"o":"m 30 205 q 44 226 71 238 q 98 251 124 248 q 142 246 158 238 q 173 231 190 226 q 205 237 226 246 q 248 254 268 245 q 289 234 289 213 q 289 192 276 174 q 267 163 254 158 q 242 154 228 154 q 215 154 202 156 q 189 159 179 162 q 171 144 162 127 q 152 110 143 92 q 163 78 178 59 q 192 40 210 23 q 222 6 234 6 q 247 5 248 14 q 241 17 233 22 q 225 26 218 32 q 212 38 208 46 q 204 54 206 64 q 207 81 218 90 q 228 100 240 102 q 252 104 264 98 q 275 93 278 80 q 286 65 282 41 q 278 17 262 -1 q 250 -18 229 -20 q 208 -23 190 -20 q 175 -19 164 -12 q 153 -6 143 3 q 133 12 124 22 q 116 33 107 42 q 96 30 78 18 q 59 5 42 7 q 27 7 18 16 q 10 24 8 36 q 5 47 8 60 q 11 72 18 80 q 27 93 40 100 q 53 107 68 108 q 83 110 98 108 q 114 105 127 101 q 136 118 144 136 q 153 153 158 170 q 144 177 128 188 q 111 198 95 205 q 79 212 65 211 q 51 210 42 194 q 56 194 72 192 q 87 189 92 174 q 96 164 92 154 q 89 144 81 137 q 73 130 62 128 q 51 125 41 131 q 24 142 22 164 q 21 185 30 205 z m 210 214 q 264 188 264 214 q 261 222 254 226 q 248 229 240 228 q 232 227 224 224 q 216 220 210 214 z m 38 26 q 58 23 72 34 q 86 45 95 54 q 88 65 70 66 q 53 67 39 62 q 25 56 22 46 q 18 36 38 26 z"},"B":{"x_min":0,"x_max":1081,"ha":1081,"o":"m 1069 809 q 1022 809 983 798 q 999 787 1012 774 q 1026 761 1036 744 q 1045 728 1050 707 q 1056 686 1056 658 q 1056 619 1036 587 q 1016 555 992 530 q 969 506 949 489 q 929 472 929 463 q 929 450 949 438 q 969 425 994 404 q 1018 382 1038 346 q 1058 310 1058 250 q 1058 217 1040 177 q 1021 137 992 102 q 962 67 926 42 q 891 16 858 10 q 835 5 810 2 q 785 -1 761 -1 q 740 -1 719 4 q 698 9 682 20 q 665 32 654 50 q 644 67 644 91 q 644 118 662 136 q 679 155 706 155 q 730 155 747 140 q 764 124 764 100 q 764 74 744 55 q 723 36 698 34 q 718 27 737 24 q 756 22 776 22 q 874 22 929 77 q 984 132 984 229 q 984 274 964 300 q 944 327 920 344 q 896 362 876 376 q 856 389 856 410 q 856 431 874 448 q 893 465 916 487 q 938 509 957 541 q 976 573 976 625 q 976 668 953 707 q 930 746 893 767 q 834 734 800 690 q 766 645 746 593 q 725 541 714 484 q 702 426 687 368 q 672 309 649 252 q 626 194 584 143 q 552 104 512 74 q 473 44 428 24 q 383 3 334 -8 q 285 -18 236 -18 q 202 -18 162 -12 q 123 -5 90 12 q 56 28 34 56 q 12 84 12 128 q 12 188 39 227 q 66 266 108 288 q 150 311 201 321 q 252 331 300 334 q 307 440 355 530 q 403 619 478 684 q 553 749 648 786 q 744 822 848 822 q 869 822 891 818 q 913 815 937 811 q 950 814 968 817 q 986 820 1004 822 q 1022 824 1038 826 q 1055 827 1064 826 z m 324 334 q 375 331 421 302 q 467 272 499 224 l 491 209 q 474 225 456 242 q 437 258 416 270 q 395 283 372 291 q 350 299 325 299 q 328 267 340 235 q 352 203 366 174 l 343 169 q 325 199 314 232 q 304 265 300 300 l 287 299 q 254 296 210 286 q 166 275 126 256 q 87 236 59 207 q 31 178 31 138 q 31 106 48 80 q 66 55 92 38 q 118 20 150 11 q 181 2 210 2 q 312 2 376 24 q 441 46 481 85 q 521 124 543 176 q 565 228 581 288 q 597 348 614 413 q 631 478 661 542 q 691 606 741 666 q 791 727 874 778 q 830 793 784 793 q 695 793 614 754 q 532 714 469 650 q 406 585 367 502 q 328 420 324 334 z"},"K":{"x_min":0,"x_max":920,"ha":920,"o":"m 407 775 q 461 775 502 759 q 542 743 568 713 q 594 683 607 640 q 620 598 620 546 q 620 493 610 443 q 599 393 584 343 q 592 343 604 341 q 616 339 630 335 q 643 331 656 326 q 669 321 679 314 q 692 327 701 362 q 710 396 720 440 q 730 483 744 530 q 757 577 779 616 q 801 655 834 680 q 867 706 916 706 q 931 706 946 703 q 960 700 972 692 q 984 685 991 673 q 998 661 998 643 q 998 621 986 605 q 975 589 952 588 q 935 588 922 592 q 909 595 900 604 q 892 614 890 630 q 889 645 895 668 q 897 675 892 676 q 887 678 883 678 q 854 678 840 658 q 826 637 818 604 q 809 571 804 529 q 798 487 788 444 q 777 402 757 362 q 737 321 700 292 q 718 272 730 244 q 741 215 749 184 q 757 153 764 123 q 771 93 780 68 q 788 44 800 29 q 813 14 834 14 q 849 14 858 26 q 867 37 872 53 q 876 69 876 86 q 877 102 877 113 l 893 113 l 894 95 q 894 74 886 50 q 879 26 864 6 q 850 -14 830 -27 q 811 -40 787 -40 q 763 -40 746 -22 q 728 -5 715 23 q 702 51 692 86 q 683 120 676 154 q 668 188 662 218 q 655 247 648 265 q 638 260 626 259 q 615 258 604 258 q 590 258 580 261 q 571 264 559 269 q 535 202 488 144 q 442 85 382 42 q 321 -2 250 -27 q 180 -52 109 -52 q 86 -52 63 -46 q 40 -39 22 -26 q 3 -13 -8 6 q -20 26 -20 52 q -20 80 -4 98 q 11 115 40 115 q 63 115 78 97 q 94 79 94 58 l 94 38 q 87 24 76 14 q 64 3 50 -5 q 64 -16 80 -24 q 95 -31 113 -31 q 164 -31 215 -18 q 266 -6 308 26 q 358 64 400 124 q 441 183 470 252 q 500 320 516 391 q 532 462 532 523 q 532 567 522 606 q 512 645 490 674 q 468 704 434 722 q 400 739 352 739 q 278 739 222 700 q 167 661 130 601 q 92 541 73 470 q 54 399 54 335 q 54 302 61 275 q 68 248 80 224 q 93 201 111 180 q 129 158 152 136 l 140 120 q 79 162 57 220 q 35 279 35 350 q 35 431 61 508 q 87 584 135 644 q 183 703 252 739 q 321 775 407 775 z m 581 326 q 578 316 574 304 q 569 292 565 284 q 569 282 574 280 q 579 277 586 276 q 594 276 606 278 q 618 279 636 284 q 627 299 612 312 q 597 324 581 326 z"},"R":{"x_min":0,"x_max":980,"ha":980,"o":"m 838 775 q 865 783 887 788 q 909 792 929 790 l 931 767 q 920 766 903 766 q 886 767 866 760 q 896 731 918 696 q 940 660 940 617 q 940 571 925 530 q 910 490 884 456 q 859 422 825 394 q 791 367 752 346 q 781 315 797 278 q 813 241 826 202 q 839 164 852 126 q 866 87 889 53 q 893 49 899 56 q 905 63 912 74 q 918 86 924 100 q 931 113 936 124 l 960 115 q 955 95 944 72 q 934 50 918 31 q 903 12 884 0 q 866 -13 845 -13 q 828 -13 813 10 q 798 34 784 70 q 769 105 756 146 q 742 187 728 222 q 713 258 697 282 q 681 305 662 305 q 652 305 643 304 q 634 302 624 302 q 615 267 608 232 q 601 198 581 167 q 515 67 425 24 q 335 -20 217 -20 q 177 -20 138 -13 q 100 -6 70 12 q 40 30 22 61 q 4 92 4 139 q 4 187 26 223 q 48 259 82 284 q 117 310 159 326 q 201 342 242 349 q 247 446 280 530 q 313 613 370 674 q 428 736 508 771 q 589 806 691 806 q 732 806 768 798 q 805 789 838 775 z m 265 349 q 289 349 314 347 q 339 345 362 339 q 386 333 407 322 q 428 310 445 292 l 432 270 q 416 283 404 294 q 392 304 375 312 q 358 319 332 322 q 307 326 265 326 q 268 290 280 256 q 293 222 316 193 l 296 178 q 271 210 261 249 q 251 288 246 326 q 210 319 171 305 q 132 291 100 268 q 69 246 48 214 q 28 181 28 138 q 28 102 42 76 q 56 50 79 33 q 102 16 132 8 q 161 0 193 0 q 244 0 296 14 q 348 29 390 58 q 442 94 472 132 q 501 170 516 209 q 532 248 539 289 q 546 330 552 373 q 558 416 568 460 q 578 505 601 552 q 630 611 667 658 q 704 704 761 736 q 733 746 708 754 q 684 761 653 761 q 561 761 489 730 q 417 699 367 644 q 317 589 291 514 q 265 438 265 349 z m 780 720 q 724 684 698 636 q 672 588 660 535 q 648 482 644 428 q 639 374 628 326 q 676 330 717 350 q 758 370 788 402 q 818 434 835 476 q 852 519 852 568 q 852 611 835 652 q 818 694 780 720 z"},"T":{"x_min":0,"x_max":707,"ha":707,"o":"m 1003 792 q 1001 786 996 774 q 990 761 979 747 q 968 733 952 720 q 936 708 913 701 q 889 693 863 694 q 837 695 809 695 q 790 685 774 671 q 757 657 746 628 q 738 604 734 578 q 730 553 728 527 q 727 501 726 476 q 724 450 720 425 q 706 324 672 240 q 637 157 580 97 q 523 37 440 4 q 358 -30 248 -30 q 209 -30 166 -22 q 123 -15 88 4 q 53 23 30 56 q 7 88 7 137 q 7 192 42 224 q 76 256 126 272 q 175 289 229 292 q 283 296 322 293 q 295 329 276 371 q 256 413 256 460 q 256 537 291 600 q 326 663 382 708 q 438 753 508 778 q 578 802 649 802 q 677 802 709 796 q 741 789 774 781 q 808 773 840 766 q 872 759 900 759 q 929 759 951 768 q 973 776 986 800 z m 416 218 q 402 231 390 242 q 377 253 360 261 q 344 269 322 273 q 301 277 270 277 q 236 277 198 267 q 159 257 126 237 q 93 217 71 187 q 49 157 49 118 q 49 86 65 62 q 81 38 106 22 q 130 7 160 0 q 189 -8 216 -8 q 314 -8 379 13 q 444 34 486 70 q 528 106 552 155 q 576 204 592 260 q 607 315 620 374 q 632 434 650 492 q 668 550 698 604 q 728 658 778 702 q 728 710 678 720 q 629 730 577 730 q 517 730 462 712 q 408 695 367 661 q 326 627 302 577 q 278 527 278 462 q 278 409 296 374 q 313 339 336 315 q 360 291 384 275 q 408 259 422 246 z"},"P":{"x_min":0,"x_max":824,"ha":824,"o":"m 770 792 q 816 792 855 780 q 894 767 923 742 q 952 717 968 680 q 985 644 985 596 q 985 541 961 490 q 937 438 898 397 q 858 356 808 329 q 758 302 706 296 q 699 271 692 245 q 685 219 673 194 q 643 131 596 87 q 550 43 494 16 q 437 -12 373 -24 q 309 -36 242 -36 q 201 -36 158 -29 q 115 -22 80 -3 q 45 16 22 48 q 0 80 0 131 q 0 170 15 198 q 30 227 56 248 q 81 268 114 282 q 147 295 182 302 q 217 310 252 313 q 287 316 316 316 q 316 407 352 493 q 387 579 448 646 q 510 712 592 752 q 675 792 770 792 z m 510 217 q 477 247 436 266 q 394 284 337 284 q 337 246 350 210 q 362 174 380 140 l 365 132 q 342 167 330 205 q 318 243 316 284 q 294 285 264 281 q 234 277 201 268 q 168 260 136 247 q 103 234 77 216 q 51 199 35 177 q 19 155 19 128 q 19 83 43 55 q 67 27 103 12 q 139 -3 180 -8 q 221 -14 256 -14 q 319 -14 375 -2 q 431 11 476 38 q 521 66 554 110 q 588 154 607 218 q 617 251 622 285 q 627 319 632 353 q 636 387 642 421 q 647 455 658 487 q 681 554 716 616 q 750 677 794 733 q 770 743 739 745 q 708 747 677 740 q 597 723 534 686 q 470 648 426 592 q 382 537 358 467 q 335 397 335 316 q 360 315 388 310 q 415 305 440 294 q 466 284 488 268 q 509 252 523 230 z m 814 725 q 781 683 762 634 q 744 584 734 531 q 723 478 718 424 q 713 370 708 319 q 731 322 756 328 q 781 334 802 350 q 824 367 843 393 q 862 419 876 448 q 890 477 898 508 q 907 539 907 566 q 907 599 900 624 q 892 649 880 668 q 867 686 850 700 q 833 714 814 725 z"},"|":{"x_min":0,"x_max":220,"ha":220,"o":"m 92 -231 l 92 694 l 150 694 l 150 -231 z"},"t":{"x_min":0,"x_max":212,"ha":212,"o":"m 11 220 l 71 220 l 116 431 l 187 444 l 140 220 l 205 220 l 199 194 l 135 194 l 110 67 q 107 35 112 28 q 117 22 128 32 q 138 41 152 62 q 167 82 184 104 l 200 91 q 197 82 186 66 q 176 51 162 35 q 145 14 121 0 q 97 -15 67 -11 q 41 -8 38 12 q 35 31 43 66 l 67 194 l 5 194 z"},"M":{"x_min":0,"x_max":1082,"ha":1082,"o":"m 121 140 q 86 155 61 196 q 36 236 20 285 q 4 334 -4 384 q -11 433 -11 466 q -11 522 6 581 q 24 640 58 688 q 91 737 140 768 q 189 799 253 799 q 304 799 338 780 q 373 762 394 732 q 415 701 424 660 q 432 620 432 575 q 432 528 425 482 q 418 436 408 390 q 397 345 386 300 q 375 255 367 209 q 381 240 400 292 q 418 343 441 402 q 464 461 491 522 q 518 583 550 632 q 581 681 616 712 q 652 743 692 743 q 714 743 727 733 q 740 723 746 707 q 753 691 754 672 q 756 654 756 638 q 756 582 746 526 q 736 469 723 413 q 710 357 696 301 q 683 245 676 190 q 691 221 710 268 q 729 315 752 368 q 774 420 800 472 q 827 525 858 567 q 889 609 926 636 q 962 662 1004 662 q 1036 662 1052 640 q 1068 617 1068 589 q 1068 526 1050 464 q 1032 402 1010 340 q 988 279 970 217 q 952 155 952 92 q 952 86 956 78 q 959 71 964 64 q 969 58 976 53 q 983 48 989 48 q 998 48 1007 56 q 1016 63 1024 74 q 1032 84 1038 95 q 1045 106 1050 112 l 1066 100 q 1057 82 1045 64 q 1033 46 1018 32 q 1003 17 984 8 q 966 -2 944 -2 q 898 -2 881 24 q 864 49 864 94 q 864 149 882 209 q 900 269 922 332 q 943 394 961 457 q 979 520 979 582 q 979 596 970 607 q 960 618 948 618 q 921 618 890 579 q 859 540 827 479 q 795 418 764 344 q 732 271 706 202 q 680 133 660 78 q 641 23 632 -1 l 551 -1 q 562 31 576 80 q 589 129 603 186 q 617 244 630 306 q 643 369 654 428 q 664 486 670 537 q 676 588 676 622 q 676 631 674 643 q 673 655 670 666 q 666 677 659 684 q 652 692 640 692 q 618 692 594 666 q 570 640 545 596 q 520 552 495 496 q 470 439 446 378 q 423 317 402 256 q 381 196 364 144 q 348 93 336 54 q 323 16 317 0 l 234 0 q 243 26 256 67 q 268 108 282 160 q 295 211 308 269 q 322 327 332 388 q 343 448 350 507 q 356 566 356 619 q 356 683 322 725 q 289 767 221 767 q 182 767 152 752 q 121 736 98 710 q 75 684 59 650 q 43 617 32 580 q 22 544 18 508 q 13 472 13 442 q 13 370 26 320 q 40 269 59 235 q 78 201 98 182 q 118 162 130 152 z"},"g":{"x_min":0,"x_max":304,"ha":304,"o":"m 151 242 q 171 242 190 236 q 209 230 223 216 l 228 240 l 302 239 l 264 53 q 257 12 247 -24 q 237 -60 218 -86 q 200 -113 170 -128 q 139 -144 91 -144 q 79 -144 62 -140 q 45 -136 30 -128 q 15 -120 4 -108 q -6 -96 -6 -80 q -6 -60 8 -45 q 21 -30 41 -30 q 60 -30 74 -42 q 88 -54 88 -74 q 88 -87 80 -98 q 73 -110 64 -119 l 85 -124 q 121 -124 138 -112 q 154 -99 162 -78 q 169 -56 172 -26 q 176 3 185 37 q 168 23 148 12 q 128 0 104 0 q 58 0 38 24 q 17 49 17 94 q 17 121 27 148 q 37 174 55 195 q 73 216 98 229 q 122 242 151 242 z m 88 78 q 88 59 93 42 q 98 25 121 25 q 141 25 158 40 q 176 54 188 74 q 201 95 208 118 q 215 141 215 158 q 215 167 213 178 q 211 188 207 197 q 203 206 196 212 q 188 218 178 218 q 156 218 139 203 q 122 188 111 166 q 100 144 94 120 q 88 96 88 78 z"},"j":{"x_min":0,"x_max":168,"ha":168,"o":"m 229 449 q 229 423 215 410 q 201 397 184 396 q 166 396 152 408 q 138 420 138 445 q 138 468 152 480 q 166 492 184 492 q 201 493 215 482 q 229 472 229 449 z m 89 -12 q 81 -41 69 -66 q 57 -90 40 -108 q 22 -126 -2 -136 q -26 -146 -59 -146 q -69 -146 -80 -142 q -90 -139 -99 -133 q -108 -127 -114 -119 q -119 -111 -119 -102 q -119 -85 -106 -70 q -93 -56 -76 -56 q -53 -56 -44 -73 q -34 -90 -41 -109 q -42 -121 -34 -124 q -26 -126 -16 -120 q -6 -115 2 -103 q 11 -91 13 -73 q 17 -17 32 34 q 48 85 63 124 q 78 163 87 186 q 96 209 88 210 q 79 211 73 210 q 67 208 60 203 q 54 198 45 190 q 36 181 22 167 l 10 181 q 17 190 30 202 q 42 215 57 226 q 72 238 86 246 q 101 253 113 253 q 136 253 147 234 q 158 216 158 197 q 158 170 151 144 q 144 117 134 91 q 123 65 111 40 q 99 14 89 -12 z"},"i":{"x_min":0,"x_max":214,"ha":214,"o":"m 162 348 q 141 348 130 361 q 118 374 118 394 q 118 415 131 431 q 144 447 166 447 q 186 447 200 434 q 214 422 214 402 q 214 380 200 364 q 185 348 162 348 z m 127 253 q 150 253 161 234 q 172 216 172 197 q 172 177 164 156 q 155 135 146 114 q 136 92 128 71 q 119 50 119 31 q 119 27 120 20 q 121 14 127 14 q 135 14 142 20 q 150 25 156 32 q 162 40 167 48 q 172 57 175 62 l 194 53 q 178 27 159 8 q 140 -12 108 -12 q 87 -12 67 0 q 47 12 47 34 q 47 51 59 80 q 71 110 84 138 q 97 167 104 188 q 111 210 102 210 q 93 210 87 208 q 81 207 74 202 q 68 198 59 190 q 50 181 36 167 l 24 181 q 31 190 44 202 q 56 215 71 226 q 86 238 100 246 q 115 253 127 253 z"},"y":{"x_min":0,"x_max":264,"ha":264,"o":"m 206 246 q 221 255 240 250 q 259 244 265 227 q 274 209 270 190 q 266 170 257 152 q 241 120 228 90 q 214 59 197 30 q 172 -12 143 -50 q 114 -88 76 -115 q 55 -127 30 -130 q 6 -133 -14 -119 q -25 -112 -30 -100 q -35 -88 -34 -75 q -33 -62 -26 -52 q -20 -41 -7 -37 q 4 -28 20 -32 q 35 -35 44 -44 q 56 -56 56 -72 q 55 -88 52 -103 q 95 -77 126 -38 q 158 1 188 58 q 162 35 132 16 q 112 4 89 -3 q 66 -10 43 -7 q 35 -4 32 2 q 29 8 28 16 q 27 23 28 32 q 28 40 28 47 q 32 69 38 98 q 45 126 49 148 q 53 171 52 182 q 52 193 42 182 q 28 171 22 164 q 16 158 7 149 l 7 179 q 36 211 82 230 q 93 237 110 233 q 126 229 128 215 q 132 191 130 168 q 127 144 121 121 q 115 98 109 74 q 103 51 101 28 q 143 46 177 76 q 211 107 226 149 q 220 153 214 156 q 207 160 200 164 q 194 167 189 173 q 184 179 181 190 q 179 207 185 224 q 191 240 206 246 z"},"@":{"x_min":0,"x_max":687,"ha":687,"o":"m 518 -42 q 474 -66 428 -78 q 383 -91 329 -91 q 275 -91 225 -73 q 175 -55 136 -20 q 98 15 75 67 q 52 119 52 187 q 52 269 82 334 q 113 399 163 444 q 213 489 277 512 q 341 536 408 536 q 470 536 518 517 q 565 498 598 466 q 630 433 646 390 q 663 346 663 297 q 663 250 646 208 q 628 166 598 134 q 568 103 528 85 q 487 67 441 67 q 417 67 408 77 q 399 87 399 104 q 399 118 404 136 l 415 184 l 413 185 q 402 169 382 148 q 361 128 338 110 q 315 92 293 80 q 271 67 256 67 q 240 67 226 86 q 213 106 212 142 q 212 161 216 184 q 221 208 230 232 q 239 256 254 279 q 269 302 290 322 q 319 349 356 368 q 393 387 437 388 q 447 388 462 385 q 476 382 484 380 q 491 378 498 377 q 504 376 512 376 q 501 329 488 276 q 475 222 463 160 q 459 144 459 131 q 459 105 480 107 q 501 107 525 119 q 549 131 570 154 q 591 178 604 214 q 618 250 618 298 q 618 347 600 384 q 583 422 554 448 q 524 473 484 486 q 444 499 399 499 q 335 499 282 476 q 229 453 192 412 q 154 372 133 316 q 112 261 112 195 q 112 152 125 108 q 138 65 167 30 q 196 -4 244 -26 q 292 -47 361 -47 q 408 -47 446 -36 q 485 -26 509 -14 z m 398 351 q 363 351 337 322 q 327 311 316 293 q 306 275 297 254 q 288 232 282 208 q 277 183 277 160 q 277 140 283 132 q 289 125 297 125 q 303 125 315 130 q 327 136 344 150 q 361 163 382 186 q 402 208 425 242 q 432 262 438 290 q 444 317 449 340 q 441 345 427 348 q 413 351 399 351 z"},".":{"x_min":0,"x_max":125,"ha":125,"o":"m 56 102 q 78 102 91 88 q 104 75 104 53 q 104 31 90 15 q 75 -1 52 -1 q 30 -1 17 12 q 4 25 4 47 q 4 70 18 86 q 33 102 56 102 z"},"p":{"x_min":0,"x_max":305,"ha":305,"o":"m 194 388 q 170 359 158 340 q 147 320 141 302 q 135 283 132 260 q 130 238 124 205 q 140 222 163 232 q 186 242 209 242 q 231 242 247 233 q 263 224 274 209 q 284 194 288 175 q 293 156 293 137 q 293 108 283 82 q 273 56 256 36 q 238 16 213 4 q 188 -7 158 -7 q 141 -7 131 -4 q 121 0 114 6 q 106 13 100 22 q 94 32 86 44 l 46 -144 l -24 -144 q -10 -74 4 1 q 17 76 38 148 q 60 220 94 286 q 127 351 182 402 z m 143 23 q 164 23 178 38 q 191 53 200 74 q 208 95 212 118 q 215 140 215 155 q 215 175 206 194 q 198 212 174 212 q 156 212 142 198 q 129 184 120 164 q 110 145 106 124 q 101 102 101 88 q 101 78 103 66 q 105 55 110 46 q 114 36 122 30 q 130 23 143 23 z"},"X":{"x_min":0,"x_max":760,"ha":760,"o":"m 346 408 l 480 408 q 488 444 491 478 q 494 511 494 540 q 494 583 484 625 q 474 667 452 700 q 431 732 396 752 q 361 772 311 772 q 251 772 199 736 q 147 700 109 646 q 71 593 50 530 q 28 468 28 414 q 28 383 34 353 q 39 323 50 295 l 31 288 q 14 323 11 360 q 8 398 8 436 q 8 495 32 559 q 57 623 100 676 q 142 730 200 764 q 257 797 323 796 q 383 794 422 780 q 462 767 490 742 q 517 716 536 678 q 556 641 577 592 q 605 625 630 655 q 656 685 685 708 q 714 730 750 744 q 785 757 834 757 q 855 757 868 750 q 882 744 898 728 q 902 719 902 704 q 902 683 890 665 q 879 647 856 647 q 836 647 820 661 q 803 675 803 696 q 803 707 806 716 q 809 725 811 736 q 772 733 739 712 q 706 692 680 662 q 653 632 634 596 q 614 560 601 526 q 591 501 584 470 q 577 440 572 408 l 695 408 l 686 384 l 569 384 q 565 355 564 329 q 563 303 563 280 q 563 260 568 222 q 574 185 586 148 q 599 112 618 85 q 638 58 666 58 q 677 58 685 64 q 693 70 699 79 q 705 88 710 98 q 714 108 718 116 l 733 112 q 732 94 720 72 q 708 51 690 33 q 673 15 652 2 q 632 -10 614 -10 q 587 -10 565 14 q 543 39 526 73 q 510 107 499 142 q 488 177 484 198 q 453 153 418 114 q 384 75 343 47 q 302 19 254 3 q 206 -13 149 -13 q 126 -13 102 -8 q 77 -2 56 10 q 35 21 22 40 q 8 59 8 86 q 8 112 26 133 q 45 154 72 154 q 95 154 112 139 q 128 124 128 101 q 128 80 122 69 q 116 58 106 52 q 97 45 84 42 q 70 38 55 34 q 78 21 104 16 q 130 11 156 11 q 223 11 276 44 q 329 78 368 132 q 408 185 434 252 q 461 318 475 384 l 337 384 z"},"*":{"x_min":0,"x_max":293,"ha":293,"o":"m 308 575 l 284 544 l 229 547 l 276 495 l 258 465 l 213 525 l 200 455 l 170 437 l 188 528 l 111 462 l 112 499 l 175 544 l 86 542 l 107 568 l 175 570 l 134 621 l 153 645 l 197 588 l 208 656 l 241 674 l 220 588 l 286 646 l 286 611 l 233 569 z"},"Y":{"x_min":0,"x_max":780,"ha":780,"o":"m 56 302 q 48 317 44 338 q 40 360 38 382 q 36 404 36 424 q 35 443 35 452 q 35 520 58 586 q 81 651 124 702 q 167 753 226 784 q 286 815 360 815 q 415 815 458 798 q 500 780 529 748 q 558 717 572 673 q 587 629 587 575 q 587 503 566 438 q 546 373 512 313 q 479 253 436 198 q 393 144 347 94 q 379 82 412 72 q 444 62 479 62 q 532 62 568 92 q 604 121 628 168 q 653 215 670 274 q 686 334 701 393 q 716 452 732 506 q 748 560 772 596 q 781 611 792 628 q 803 645 816 660 q 829 676 844 688 q 859 701 876 707 l 888 688 q 866 681 853 668 q 840 655 832 640 q 825 625 822 610 q 818 596 815 587 q 793 516 782 447 q 772 378 762 311 q 752 244 736 179 q 721 114 690 50 q 672 15 637 -20 q 602 -55 558 -82 q 515 -110 468 -127 q 422 -144 383 -144 q 368 -144 348 -142 q 327 -139 309 -132 q 291 -125 278 -112 q 266 -99 266 -78 q 266 -56 284 -42 q 303 -28 324 -28 q 344 -28 362 -40 q 380 -51 380 -74 q 380 -86 375 -96 q 370 -107 366 -118 q 374 -119 381 -120 q 388 -120 396 -120 q 449 -120 492 -98 q 535 -75 566 -38 q 598 -1 618 46 q 637 92 643 140 q 618 110 596 86 q 575 61 550 44 q 526 26 496 16 q 465 7 422 7 q 384 7 348 16 q 311 25 274 35 q 239 21 202 10 q 166 0 128 0 q 111 0 90 4 q 70 7 51 15 q 32 23 20 38 q 7 52 7 73 q 7 96 22 112 q 37 129 58 140 q 80 151 104 156 q 128 162 146 162 q 170 162 192 156 q 215 150 236 141 q 258 132 280 122 q 301 112 323 104 q 366 146 399 198 q 432 250 454 308 q 475 365 486 426 q 497 487 497 546 q 497 595 486 636 q 476 677 454 706 q 431 735 394 752 q 358 768 306 768 q 249 768 202 736 q 155 705 121 657 q 87 609 68 553 q 50 497 50 448 q 50 405 58 368 q 66 331 78 305 z m 28 74 q 28 59 38 48 q 48 38 62 32 q 77 26 93 23 q 109 20 121 20 q 153 20 183 28 q 213 36 241 50 q 222 58 203 67 q 184 76 164 84 q 145 92 124 98 q 104 103 83 103 q 76 103 66 102 q 57 102 48 99 q 40 96 34 90 q 28 84 28 74 z"},"c":{"x_min":0,"x_max":235,"ha":235,"o":"m 7 91 q 7 119 18 146 q 30 172 50 192 q 70 211 96 223 q 121 235 150 235 q 163 235 176 233 q 190 231 202 226 q 213 220 220 210 q 228 201 228 185 q 228 167 218 150 q 207 132 186 132 q 171 132 158 144 q 144 156 144 172 q 144 186 150 197 q 156 208 161 220 q 141 216 126 204 q 111 193 102 178 q 92 162 87 143 q 82 124 82 106 q 82 94 84 80 q 87 66 93 54 q 99 42 109 34 q 119 26 134 26 q 158 26 176 42 q 193 57 211 71 q 212 72 216 66 q 221 61 223 60 q 200 32 168 12 q 136 -7 98 -7 q 54 -7 30 20 q 7 48 7 91 z"},"!":{"x_min":0,"x_max":222,"ha":222,"o":"m 108 536 q 135 543 160 557 q 184 571 210 580 q 198 529 182 479 q 165 429 148 379 q 130 329 114 279 q 97 229 85 178 l 70 178 q 78 240 84 300 q 90 361 96 424 q 99 452 101 480 q 103 509 108 536 z m 58 92 q 75 92 88 80 q 100 67 100 50 q 100 30 85 15 q 70 0 50 0 q 32 0 20 14 q 8 28 8 46 q 8 66 23 79 q 38 92 58 92 z"},"/":{"x_min":0,"x_max":340,"ha":340,"o":"m 397 792 q 340 648 283 505 q 226 362 183 211 q 163 138 140 63 q 116 -12 85 -81 q 76 -101 54 -114 q 33 -126 13 -132 l 10 -128 q 33 -88 48 -42 q 64 4 80 47 q 124 166 164 284 q 205 403 246 523 q 268 586 288 651 q 307 716 336 776 q 360 791 389 799 z"},"[":{"x_min":0,"x_max":342,"ha":342,"o":"m 159 2 l 157 -10 l 209 -10 q 266 -10 285 -4 l 294 -2 q 299 -2 299 -6 q 299 -9 295 -15 l 289 -25 l 281 -37 q 269 -57 263 -62 q 257 -67 247 -68 l 162 -68 q 123 -68 110 -69 l 97 -69 q 87 -69 83 -67 q 80 -67 80 -62 q 80 -59 83 -48 q 89 -18 91 -10 q 92 -3 96 15 q 99 33 102 46 q 104 60 110 92 l 130 195 l 151 306 l 173 423 l 193 530 l 211 624 q 212 632 221 673 q 225 694 227 708 q 229 722 231 728 q 231 732 233 733 q 234 734 237 734 l 246 734 q 286 731 363 731 q 411 731 424 734 l 433 735 q 440 735 440 729 q 440 724 421 692 q 413 677 408 673 q 404 670 392 670 l 318 670 l 288 669 l 281 669 l 277 653 q 257 554 241 465 q 229 406 210 297 l 186 156 q 184 145 183 140 l 181 130 q 180 125 179 121 q 178 114 176 98 q 173 82 169 64 q 163 27 163 25 q 162 22 159 2 z"},"6":{"x_min":0,"x_max":322,"ha":322,"o":"m 289 448 l 296 428 q 247 420 217 412 q 187 403 168 386 q 148 369 135 340 q 122 312 106 265 q 126 282 151 292 q 176 302 202 302 q 256 302 277 270 q 298 239 298 188 q 298 153 284 117 q 271 81 247 52 q 223 23 190 5 q 157 -13 119 -13 q 90 -13 68 3 q 46 19 31 43 q 16 67 8 95 q 1 123 1 148 q 1 209 24 262 q 46 314 85 354 q 124 393 176 418 q 229 442 289 448 z m 66 73 q 66 48 80 28 q 95 7 122 7 q 150 7 168 28 q 187 49 198 78 q 209 108 213 140 q 217 172 217 194 q 217 207 215 222 q 213 236 208 248 q 202 260 192 268 q 181 275 164 275 q 135 275 116 252 q 97 228 86 196 q 75 163 70 129 q 66 95 66 73 z"},"r":{"x_min":0,"x_max":271,"ha":271,"o":"m 4 171 q 8 178 18 188 q 27 197 38 207 q 49 217 60 226 q 72 234 82 240 q 96 246 113 246 q 130 246 136 228 q 142 196 134 164 q 125 132 116 103 q 142 138 164 176 q 187 214 222 240 q 229 244 238 246 q 248 247 257 246 q 266 244 274 238 q 281 233 284 224 q 288 212 286 200 q 284 189 276 180 q 268 170 256 164 q 244 158 229 158 q 204 158 198 189 q 169 147 139 97 q 109 47 92 0 l 26 0 q 32 27 42 63 q 51 99 58 130 q 64 161 64 180 q 63 199 50 192 q 36 184 30 177 q 25 170 17 162 z"},"2":{"x_min":0,"x_max":329,"ha":329,"o":"m 182 347 q 226 347 254 324 q 281 301 281 254 q 281 219 265 193 q 249 167 225 146 q 201 124 174 106 q 146 89 122 71 q 133 70 142 70 q 152 70 162 70 l 247 71 q 260 71 266 80 q 272 88 276 98 q 281 108 286 116 q 292 125 304 125 l 310 125 q 301 93 286 62 q 271 32 263 0 l 5 0 q 5 11 20 24 q 34 36 56 52 q 78 67 104 86 q 129 105 151 128 q 173 150 188 177 q 202 204 202 236 q 202 262 186 282 q 169 301 140 301 q 118 301 101 292 q 84 282 72 266 q 60 251 54 231 q 48 211 48 191 q 48 168 54 146 q 61 125 64 102 l 48 102 q 38 122 33 144 q 28 167 28 190 q 28 222 40 250 q 51 279 72 300 q 93 322 121 334 q 149 347 182 347 z"},"{":{"x_min":0,"x_max":314,"ha":314,"o":"m 352 630 q 326 627 310 620 q 293 612 283 601 q 273 590 268 577 q 263 564 260 549 q 256 529 254 504 q 253 480 251 460 q 250 450 250 437 q 249 424 248 410 q 247 396 246 382 q 244 369 242 360 q 234 319 212 290 q 190 262 150 253 l 149 249 q 175 242 190 223 q 204 204 205 172 q 205 141 193 108 q 181 76 171 42 q 166 19 156 -12 q 146 -44 146 -70 q 146 -99 166 -112 q 185 -125 209 -129 l 203 -155 q 183 -155 163 -152 q 143 -148 126 -138 q 110 -128 100 -112 q 90 -95 90 -68 q 90 -55 92 -38 q 95 -20 100 -2 q 104 17 110 36 q 115 56 120 73 q 123 83 128 97 q 132 111 136 126 q 139 141 142 156 q 145 170 145 180 q 145 208 126 220 q 107 233 78 235 l 83 265 q 113 267 130 276 q 148 284 158 296 q 168 307 172 320 q 176 333 179 345 q 181 359 183 378 q 185 398 189 428 q 192 471 196 496 q 199 521 203 541 q 210 580 228 603 q 245 626 267 638 q 289 650 312 654 q 335 657 354 657 z"},"9":{"x_min":0,"x_max":331,"ha":331,"o":"m 185 359 q 215 359 240 345 q 264 331 281 308 q 298 286 307 258 q 316 231 316 203 q 316 142 290 88 q 265 33 222 -9 q 179 -51 124 -78 q 69 -104 11 -108 l 7 -89 q 56 -79 88 -68 q 119 -56 140 -37 q 161 -18 176 12 q 190 43 205 91 q 194 82 184 74 q 175 65 164 58 q 154 52 142 48 q 129 44 113 44 q 87 44 68 56 q 49 67 36 86 q 23 104 17 126 q 11 149 11 172 q 11 210 24 244 q 36 278 58 304 q 81 329 114 344 q 146 359 185 359 z m 88 154 q 88 143 89 128 q 90 114 94 102 q 98 89 106 80 q 115 71 131 71 q 161 71 182 92 q 203 114 216 145 q 228 176 234 209 q 239 242 239 265 q 239 297 228 320 q 216 342 179 342 q 153 342 136 320 q 118 298 108 268 q 97 238 92 206 q 88 174 88 154 z"}," ":{"x_min":0,"x_max":175,"ha":175,"o":""},"I":{"x_min":0,"x_max":646,"ha":646,"o":"m 619 788 q 647 788 674 780 q 702 773 727 764 q 752 755 772 748 q 793 741 808 743 q 793 716 772 700 q 751 683 730 662 q 708 642 690 611 q 671 580 660 524 q 647 458 639 390 q 631 321 617 254 q 602 182 562 126 q 522 71 466 34 q 411 -3 344 -22 q 278 -41 208 -41 q 169 -41 132 -32 q 95 -23 66 -4 q 38 16 21 47 q 4 78 4 122 q 4 168 26 204 q 48 240 82 266 q 116 293 158 309 q 199 325 239 332 q 239 414 264 496 q 290 578 338 642 q 387 707 458 748 q 528 788 619 788 z m 254 337 q 298 337 340 330 q 381 324 422 310 l 410 286 q 380 296 348 306 q 317 316 284 316 q 278 316 271 315 q 264 314 258 313 q 264 275 276 237 q 288 199 308 166 l 289 145 q 266 182 254 224 q 241 266 239 310 q 204 304 166 290 q 129 275 98 252 q 66 229 46 196 q 26 164 26 124 q 26 97 38 72 q 50 47 70 28 q 90 9 116 -2 q 141 -14 168 -14 q 236 -14 289 -4 q 342 6 383 31 q 424 56 456 99 q 487 142 511 208 q 528 254 532 300 q 536 347 547 395 q 568 479 609 548 q 650 618 710 680 q 678 698 644 711 q 611 724 575 724 q 494 724 436 690 q 377 656 338 601 q 299 546 278 476 q 258 407 254 337 z"},"H":{"x_min":0,"x_max":948,"ha":948,"o":"m 750 802 q 721 758 704 715 q 686 672 674 628 q 661 584 652 538 q 643 492 632 443 q 670 448 708 454 q 746 459 784 467 q 793 491 808 524 q 823 556 842 590 q 861 625 884 658 q 908 691 934 717 q 960 743 988 759 q 1017 775 1048 775 q 1067 775 1082 766 q 1097 756 1097 737 q 1097 692 1078 646 q 1059 601 1028 563 q 996 525 955 498 q 914 470 869 460 q 843 386 828 302 q 812 219 812 138 q 812 115 817 92 q 822 70 839 53 q 875 77 898 119 q 903 111 906 109 q 910 107 910 97 q 910 84 896 66 q 882 49 863 34 q 844 18 824 7 q 804 -4 793 -4 q 767 -4 752 12 q 738 29 730 52 q 723 76 721 102 q 719 128 719 146 q 719 186 724 223 q 729 260 738 296 q 746 333 756 369 q 766 405 776 443 l 625 419 q 604 336 574 258 q 544 180 497 119 q 450 58 381 21 q 312 -16 214 -16 q 152 -16 115 23 q 78 62 78 124 q 78 153 87 182 q 96 212 114 235 q 63 271 38 322 q 12 372 12 434 q 12 486 24 527 q 37 568 61 601 q 85 634 118 660 q 152 686 194 710 q 260 747 329 761 q 398 775 468 780 q 538 784 608 786 q 679 788 750 802 z m 46 424 q 46 394 50 370 q 53 346 62 326 q 71 306 86 288 q 102 269 126 251 q 141 264 154 278 q 168 293 184 306 q 208 326 254 346 q 301 366 354 382 q 406 399 456 411 q 507 423 539 427 q 550 481 562 534 q 574 587 589 641 q 598 673 610 704 q 623 734 632 766 q 574 766 508 762 q 443 758 378 746 q 312 734 252 711 q 192 688 146 650 q 101 612 74 556 q 46 501 46 424 z m 876 485 q 907 494 942 516 q 978 539 1008 570 q 1039 601 1060 638 q 1080 675 1080 714 q 1080 756 1043 756 q 1006 756 978 724 q 950 693 930 650 q 910 606 896 560 q 883 514 876 485 z m 145 244 q 163 238 181 232 q 199 227 218 227 q 243 227 266 234 q 289 240 313 240 q 307 227 300 220 q 294 214 286 211 q 278 208 268 208 q 258 208 245 208 q 215 208 186 214 q 158 219 130 228 q 114 206 106 180 q 97 155 97 128 q 97 73 130 40 q 162 8 218 8 q 303 8 357 44 q 411 79 444 136 q 478 192 498 262 q 517 331 532 400 q 488 394 434 382 q 379 369 325 350 q 271 331 223 304 q 175 278 145 244 z"},"4":{"x_min":0,"x_max":355,"ha":355,"o":"m 266 325 q 278 337 289 346 q 300 356 317 356 q 309 339 300 307 q 290 275 280 236 q 270 198 262 156 q 253 114 247 78 q 253 79 260 79 q 267 79 273 80 q 279 82 284 86 q 290 90 294 100 q 302 114 306 128 q 311 143 313 157 q 318 157 324 155 q 330 153 332 150 q 327 118 319 85 q 311 52 313 17 q 313 12 305 6 q 297 0 288 -2 q 289 7 290 11 q 290 15 290 18 q 291 21 291 26 q 291 30 290 41 q 284 58 272 58 q 259 59 242 56 q 237 24 230 -6 q 222 -36 220 -68 q 234 -71 246 -74 q 259 -78 274 -80 q 274 -88 266 -96 q 219 -96 173 -94 q 127 -93 79 -96 l 79 -80 q 86 -77 94 -76 q 103 -76 110 -74 q 118 -73 124 -69 q 130 -65 133 -56 q 142 -30 150 -2 q 158 27 163 56 l 1 53 q 6 79 22 96 q 38 113 55 131 q 106 181 161 228 q 216 275 266 325 z m 166 77 l 204 240 q 159 201 116 160 q 73 120 32 76 z"},"~":{"x_min":0,"x_max":538,"ha":538,"o":"m 511 255 q 494 206 464 177 q 434 148 389 148 q 355 148 326 162 q 296 176 268 192 q 243 207 225 214 q 207 222 186 222 q 157 222 136 203 q 115 184 99 142 l 66 166 q 81 200 97 220 q 113 241 130 252 q 146 262 162 265 q 177 268 191 268 q 219 268 242 260 q 266 252 299 232 q 328 215 350 205 q 373 195 396 195 q 424 195 442 214 q 461 232 477 274 z"},"D":{"x_min":0,"x_max":773,"ha":773,"o":"m 761 782 q 739 781 705 776 q 671 770 644 755 q 727 702 764 630 q 802 558 802 462 q 802 409 790 352 q 777 296 754 241 q 730 186 696 137 q 661 88 618 51 q 575 14 523 -8 q 471 -30 412 -30 q 379 -30 346 -16 q 313 -1 283 11 q 254 -3 210 -16 q 165 -30 120 -30 q 100 -30 79 -25 q 58 -20 41 -10 q 24 1 13 18 q 2 35 2 59 q 2 80 16 94 q 30 108 50 116 q 71 124 93 128 q 115 131 130 131 q 184 131 234 110 q 285 90 334 68 q 363 89 382 122 q 401 156 414 196 q 426 237 434 282 q 441 328 446 374 q 452 419 457 461 q 462 503 470 536 q 487 602 526 653 q 565 704 611 750 q 577 758 543 763 q 509 768 474 768 q 385 768 308 728 q 232 687 176 622 q 120 557 88 474 q 56 390 56 305 q 56 276 64 248 q 71 220 80 193 l 68 193 q 50 228 41 267 q 32 306 32 344 q 32 441 67 522 q 102 604 162 663 q 223 722 306 755 q 388 788 484 788 q 527 788 559 782 q 591 775 626 764 q 652 778 686 787 q 719 796 751 797 z m 356 60 q 391 47 426 36 q 462 24 499 24 q 544 24 581 46 q 618 69 647 106 q 676 143 698 190 q 719 236 734 285 q 748 334 755 380 q 762 426 762 462 q 762 498 754 540 q 747 582 731 621 q 715 660 690 692 q 665 725 630 742 q 589 689 573 631 q 557 573 550 514 q 543 454 538 394 q 534 333 518 274 q 501 216 464 162 q 427 108 356 60 z m 20 49 q 20 31 32 20 q 45 9 62 2 q 80 -5 99 -8 q 118 -10 131 -10 q 144 -10 161 -8 q 178 -5 195 0 q 212 4 228 10 q 244 16 256 22 q 239 29 214 40 q 188 50 160 60 q 133 69 107 76 q 81 82 64 82 q 47 82 34 75 q 20 68 20 49 z"},"^":{"x_min":0,"x_max":531,"ha":531,"o":"m 422 185 l 276 514 l 129 185 l 79 185 l 259 576 l 297 576 l 476 185 z"},"0":{"x_min":0,"x_max":337,"ha":337,"o":"m 203 343 q 234 343 257 332 q 280 321 295 302 q 310 283 317 258 q 324 232 324 204 q 324 166 312 128 q 301 90 279 60 q 257 30 224 12 q 192 -7 150 -7 q 115 -7 89 5 q 63 17 46 38 q 29 59 20 87 q 11 115 11 148 q 11 191 25 226 q 39 262 64 288 q 89 314 124 328 q 160 343 203 343 z m 200 326 q 177 326 156 309 q 136 292 120 267 q 105 242 96 215 q 86 188 86 168 q 86 148 88 122 q 91 95 100 71 q 108 47 124 30 q 141 14 169 14 q 202 14 226 34 q 249 54 264 83 q 280 112 287 145 q 294 178 294 205 q 294 227 289 248 q 284 270 273 288 q 262 305 244 316 q 226 326 200 326 z"},"F":{"x_min":0,"x_max":686,"ha":686,"o":"m 636 802 q 672 802 708 796 q 744 791 780 784 q 816 777 852 772 q 887 766 923 766 q 936 766 947 769 q 957 783 962 800 l 982 800 q 980 770 960 750 q 940 729 912 717 q 884 705 852 700 q 821 695 797 696 q 764 674 746 631 q 729 588 720 538 q 711 489 707 439 q 703 389 697 352 l 814 352 l 814 332 l 695 332 q 675 247 634 180 q 594 114 536 68 q 477 22 402 -2 q 327 -26 240 -26 q 202 -26 160 -18 q 118 -10 83 9 q 48 28 24 59 q 1 90 1 136 q 1 172 17 199 q 33 226 59 244 q 85 263 118 274 q 151 285 186 290 q 221 296 254 296 q 287 296 314 293 q 299 315 287 333 q 275 351 266 370 q 257 389 252 410 q 248 431 248 460 q 248 538 282 601 q 315 664 370 708 q 424 753 494 778 q 563 802 636 802 z m 265 472 q 265 424 277 391 q 289 358 310 333 q 332 308 361 287 q 390 266 424 242 l 420 227 q 396 234 381 242 q 366 251 352 258 q 338 266 320 270 q 302 275 271 275 q 234 275 193 268 q 152 260 118 242 q 84 223 62 192 q 40 162 40 116 q 40 80 61 56 q 82 32 112 18 q 143 5 178 0 q 213 -6 241 -6 q 323 -6 385 18 q 447 43 492 88 q 536 132 564 194 q 592 257 606 332 l 470 332 l 478 352 l 610 352 q 620 410 630 456 q 640 501 656 541 q 673 581 699 620 q 725 658 767 703 q 717 714 668 725 q 618 736 566 736 q 509 736 454 718 q 400 700 358 666 q 316 632 290 583 q 265 534 265 472 z"},"`":{"x_min":0,"x_max":500,"ha":500,"o":"m 292 588 q 341 574 379 528 q 417 481 426 420 q 369 515 277 545 z"},"k":{"x_min":0,"x_max":337,"ha":337,"o":"m 215 656 q 235 677 263 687 q 291 697 320 688 q 331 683 336 672 q 342 662 344 650 q 348 624 333 612 q 318 599 300 599 q 283 599 271 608 q 259 618 263 638 q 265 651 264 658 q 262 664 251 656 q 231 635 217 603 q 203 571 194 536 q 184 501 178 468 q 171 434 166 412 l 114 157 q 132 162 151 159 q 170 156 178 150 q 184 159 190 174 q 197 189 208 204 q 218 219 234 230 q 250 240 274 239 q 298 237 308 225 q 319 213 319 192 q 321 171 308 160 q 294 148 277 146 q 259 144 244 157 q 230 170 233 187 q 235 201 240 208 q 246 214 235 212 q 229 211 224 202 q 220 193 215 181 q 210 169 204 156 q 199 143 193 134 q 202 124 209 106 q 216 89 223 72 q 230 54 238 40 q 247 27 259 25 q 269 24 278 32 q 287 39 294 50 q 301 61 306 72 q 311 84 314 91 l 329 88 q 321 65 308 43 q 295 21 278 7 q 261 -7 240 -10 q 220 -13 196 1 q 174 18 165 44 q 156 69 149 95 q 137 87 123 84 q 109 82 95 83 l 76 0 l 12 0 q 34 112 56 224 q 79 335 102 444 q 114 502 142 557 q 171 612 215 656 z m 100 101 q 125 99 145 110 q 143 124 135 133 q 127 142 110 143 z"},"u":{"x_min":0,"x_max":332,"ha":332,"o":"m 97 -4 q 79 -13 57 -8 q 35 -4 26 19 q 22 45 28 78 q 35 112 41 140 q 47 169 48 186 q 50 202 36 193 q 24 184 18 176 q 12 169 7 160 q 5 160 1 162 q -3 165 -8 168 q 9 194 38 216 q 66 237 101 234 q 114 232 118 223 q 122 214 124 206 q 125 186 122 166 q 119 146 114 126 q 110 107 105 88 q 100 68 97 47 q 97 38 108 36 q 118 33 124 40 q 168 75 192 126 q 215 177 229 230 l 295 230 q 291 213 286 190 q 280 168 274 144 q 269 120 264 98 q 259 76 258 60 q 256 45 258 38 q 261 32 269 40 l 304 86 l 317 77 q 303 58 295 46 q 287 35 281 28 q 275 22 270 18 q 266 13 260 8 q 253 2 242 -2 q 231 -6 220 -6 q 209 -7 200 -2 q 191 2 188 14 q 185 32 188 52 q 192 72 194 90 q 176 60 152 36 q 129 11 97 -4 z"},"]":{"x_min":0,"x_max":342,"ha":342,"o":"m 233 664 l 235 676 l 183 676 q 124 676 107 670 q 98 668 97 668 q 92 668 92 672 q 92 675 96 681 l 103 691 l 111 703 q 124 723 130 729 q 136 734 145 734 l 230 734 q 269 734 282 735 l 294 735 q 305 735 309 734 q 312 732 312 728 q 312 726 309 714 l 305 697 q 292 641 279 574 q 270 523 258 455 q 245 387 240 360 q 235 330 233 316 q 231 307 230 302 q 229 296 228 290 q 222 254 219 243 l 199 136 l 181 42 l 165 -42 q 162 -56 160 -65 q 159 -68 154 -68 l 146 -68 q 106 -65 29 -65 q -19 -65 -33 -68 q -42 -69 -41 -69 q -48 -69 -48 -63 q -48 -56 -30 -26 q -21 -12 -16 -7 q -13 -4 0 -4 l 74 -4 l 104 -3 l 111 -3 l 115 13 q 131 89 152 201 q 166 276 182 369 l 206 510 z"},"U":{"x_min":0,"x_max":929,"ha":929,"o":"m 907 86 q 901 71 890 55 q 879 39 863 26 q 847 12 826 4 q 805 -5 780 -5 q 757 -5 742 6 q 728 16 719 32 q 710 48 706 68 q 703 87 703 106 q 703 159 716 220 q 729 280 751 342 q 773 404 802 466 q 830 528 862 586 q 893 644 924 696 q 956 747 984 788 q 942 778 905 738 q 868 698 834 640 q 799 582 766 512 q 734 441 701 368 q 668 296 634 228 q 599 159 561 106 q 523 53 481 21 q 439 -11 391 -11 q 357 -11 335 3 q 313 17 300 40 q 288 63 283 92 q 278 120 278 149 q 278 198 292 246 q 307 293 329 338 q 351 384 376 428 q 401 471 423 512 q 445 554 460 594 q 474 633 474 671 q 474 700 462 720 q 449 741 430 754 q 410 767 385 773 q 360 779 335 779 q 288 779 246 760 q 205 740 171 708 q 137 676 110 634 q 83 591 64 545 q 46 499 36 452 q 26 406 26 365 q 26 305 44 249 q 62 193 98 145 l 83 133 q 41 181 23 242 q 5 303 5 366 q 5 447 32 526 q 58 604 108 666 q 157 729 227 767 q 297 805 384 805 q 419 805 450 794 q 482 783 506 762 q 529 742 543 712 q 557 683 557 647 q 557 607 540 562 q 522 516 496 468 q 469 420 438 370 q 408 321 382 273 q 355 225 338 180 q 320 136 320 97 q 320 57 337 36 q 354 16 395 16 q 439 16 479 50 q 519 84 556 140 q 593 195 628 266 q 663 337 697 411 q 731 485 765 556 q 799 627 834 682 q 870 738 907 772 q 944 806 985 806 q 992 806 998 806 q 1005 805 1012 804 q 1009 787 1001 771 q 993 755 984 740 q 975 725 966 710 q 956 695 949 679 q 922 614 894 541 q 866 468 844 392 q 821 315 806 238 q 792 162 792 91 q 792 86 792 76 q 792 65 794 54 q 796 44 800 36 q 805 28 814 28 q 826 28 839 36 q 852 45 862 58 q 873 70 880 84 q 887 98 887 109 z"},"o":{"x_min":0,"x_max":286,"ha":286,"o":"m 149 247 q 179 248 203 242 q 227 235 243 220 q 259 205 266 180 q 273 156 269 120 q 264 82 251 58 q 238 33 218 19 q 198 5 172 0 q 145 -6 115 -6 q 65 -6 36 23 q 6 52 6 103 q 6 139 18 166 q 29 192 49 210 q 69 228 94 237 q 120 246 149 247 z m 80 84 q 80 71 82 58 q 83 46 88 36 q 92 26 101 20 q 110 14 126 14 q 146 12 160 28 q 173 44 182 67 q 190 90 194 115 q 197 140 197 157 q 197 188 187 207 q 177 226 152 224 q 131 223 118 208 q 104 192 96 170 q 87 148 84 124 q 80 100 80 84 z"},"N":{"x_min":0,"x_max":821,"ha":821,"o":"m 805 108 q 799 88 786 68 q 772 48 755 32 q 738 17 719 8 q 700 -2 684 -2 q 661 -2 646 7 q 632 16 623 31 q 614 46 610 64 q 607 83 607 102 q 607 156 624 216 q 642 275 663 336 q 684 397 702 458 q 719 518 719 575 q 719 595 709 609 q 699 623 677 623 q 657 623 633 600 q 609 578 583 540 q 557 502 530 452 q 504 403 479 350 q 454 296 432 242 q 409 188 391 140 q 373 93 360 56 q 348 19 344 0 l 258 0 q 276 76 296 154 q 317 233 335 312 q 353 392 364 472 q 376 552 376 631 q 376 700 340 733 q 303 766 235 766 q 182 766 144 734 q 105 701 80 653 q 54 605 42 552 q 29 498 29 456 q 29 362 56 288 q 84 214 152 151 l 139 143 q 90 186 64 232 q 37 277 25 318 q 13 360 12 394 q 10 428 10 448 q 10 512 24 576 q 39 639 72 690 q 104 740 156 771 q 207 802 282 802 q 329 802 362 784 q 395 766 416 736 q 437 706 446 667 q 456 628 456 587 q 456 537 448 489 q 441 441 430 393 q 420 345 409 298 q 398 250 391 202 q 404 231 424 277 q 445 323 470 375 q 495 427 525 480 q 555 532 588 574 q 621 617 657 644 q 693 670 731 670 q 768 670 786 653 q 805 636 805 598 q 805 536 788 474 q 771 412 751 350 q 731 289 714 228 q 697 167 697 108 q 697 88 706 72 q 714 55 734 55 q 745 55 754 62 q 763 69 770 79 q 776 89 780 100 q 785 112 788 120 z"},"+":{"x_min":0,"x_max":560,"ha":560,"o":"m 320 218 l 320 0 l 267 0 l 267 218 l 68 218 l 68 265 l 267 265 l 267 462 l 320 462 l 320 265 l 520 265 l 520 218 z"},"G":{"x_min":0,"x_max":648,"ha":648,"o":"m 505 762 q 532 762 564 756 q 596 750 624 736 q 651 723 670 700 q 688 678 688 644 q 688 615 670 595 q 652 575 622 575 q 596 575 580 592 q 564 609 564 635 q 564 673 588 686 q 611 700 643 698 q 614 719 578 730 q 542 740 506 740 q 434 740 376 707 q 318 674 278 622 q 237 569 215 504 q 193 438 193 372 q 193 339 204 309 q 214 279 234 256 q 253 232 280 218 q 308 205 343 205 q 385 205 429 231 q 473 257 510 296 q 547 334 573 380 q 599 425 605 464 q 627 462 648 462 q 668 463 690 461 q 673 385 656 306 q 640 226 616 152 q 592 77 558 12 q 524 -54 472 -103 q 421 -152 350 -180 q 278 -209 179 -209 q 149 -209 114 -200 q 79 -192 49 -174 q 19 -157 0 -130 q -20 -103 -20 -65 q -20 -20 3 12 q 26 43 60 63 q 95 83 136 92 q 177 101 214 101 q 258 101 300 90 q 343 79 382 59 l 371 36 q 340 53 306 62 q 271 70 235 70 q 205 70 166 60 q 126 51 90 32 q 54 14 29 -14 q 4 -42 4 -78 q 4 -107 26 -126 q 47 -144 77 -155 q 107 -166 139 -170 q 171 -175 192 -175 q 258 -175 310 -150 q 363 -126 404 -84 q 444 -43 474 11 q 504 65 526 124 q 547 183 561 243 q 575 303 584 355 q 556 323 525 289 q 494 255 459 227 q 424 199 384 182 q 343 164 296 164 q 246 164 210 180 q 175 197 152 226 q 130 254 119 293 q 108 332 108 378 q 108 399 112 424 q 115 450 122 476 q 128 503 136 528 q 145 552 156 570 q 212 667 304 714 q 396 762 505 762 z"},"q":{"x_min":0,"x_max":269,"ha":269,"o":"m 362 382 q 346 362 332 344 q 318 326 312 300 q 300 258 290 216 q 280 174 269 132 q 263 101 256 66 q 248 32 240 -3 q 231 -38 222 -73 q 214 -108 206 -139 l 132 -139 l 172 26 q 151 12 132 2 q 113 -8 90 -8 q 76 -10 64 -5 q 51 0 40 8 q 30 17 22 29 q 15 41 12 54 q 4 82 10 110 q 15 139 30 164 q 44 188 66 206 q 89 223 116 229 q 143 238 171 229 q 199 220 215 194 q 224 223 238 252 q 252 282 269 308 q 286 335 306 356 q 326 378 347 390 z m 152 210 q 125 205 109 183 q 93 161 85 138 q 76 115 74 86 q 73 58 82 35 q 84 23 97 18 q 110 13 121 19 q 140 26 154 41 q 169 56 178 76 q 188 95 194 117 q 200 139 203 160 q 204 170 200 180 q 196 189 188 196 q 181 204 172 208 q 162 211 152 210 z"},"d":{"x_min":0,"x_max":331,"ha":331,"o":"m 266 70 q 263 55 264 48 q 264 41 266 38 q 269 36 272 36 q 274 37 276 38 q 289 49 298 61 q 306 73 313 88 l 325 72 q 317 58 309 44 q 301 31 290 20 q 280 10 265 3 q 250 -4 228 -4 q 201 -1 194 13 q 187 27 184 41 q 167 21 144 8 q 120 -6 94 -6 q 74 -6 58 2 q 43 11 32 24 q 22 38 17 56 q 12 73 12 91 q 12 123 22 150 q 32 178 51 198 q 70 218 98 229 q 126 240 161 240 q 183 240 199 232 q 215 224 220 200 q 246 325 278 446 q 309 566 335 690 l 402 690 q 393 648 380 595 q 367 542 353 484 q 339 427 324 368 q 310 308 298 253 q 286 198 278 150 q 269 103 266 70 z m 161 216 q 143 216 129 200 q 115 183 104 160 q 94 138 88 114 q 83 91 83 77 q 83 68 84 58 q 85 47 88 38 q 91 30 96 24 q 102 19 112 19 q 133 19 150 35 q 167 51 180 74 q 192 96 199 120 q 206 145 206 162 q 206 185 196 200 q 185 216 161 216 z"},"1":{"x_min":0,"x_max":206,"ha":206,"o":"m 195 346 q 180 263 162 184 q 145 106 128 24 l 181 23 q 181 18 178 14 q 175 9 173 2 q 131 5 82 4 q 34 4 -7 1 l 0 25 l 47 26 q 58 83 74 150 q 89 217 98 276 q 80 268 62 256 q 43 245 24 242 l 26 264 q 39 268 56 279 q 72 290 90 302 q 108 315 127 328 q 146 340 164 348 z"},"5":{"x_min":0,"x_max":346,"ha":346,"o":"m 97 367 q 151 353 210 352 q 268 351 324 371 q 324 356 318 344 q 311 333 300 324 q 290 315 278 308 q 265 302 253 298 q 215 286 178 286 q 141 285 100 293 q 98 277 94 260 q 89 244 82 230 q 122 246 159 242 q 196 238 226 220 q 256 203 276 174 q 296 146 302 113 q 308 80 297 46 q 286 11 253 -19 q 221 -54 175 -69 q 129 -84 82 -82 q 67 -82 50 -78 q 34 -73 23 -61 q 9 -47 4 -22 q 0 2 12 20 q 20 32 38 36 q 55 39 70 36 q 85 30 92 12 q 100 -5 97 -23 q 92 -34 84 -44 q 76 -53 70 -61 q 91 -64 112 -61 q 134 -58 154 -48 q 173 -39 188 -24 q 203 -8 210 12 q 214 27 218 44 q 221 61 220 78 q 219 95 213 110 q 207 125 194 137 q 174 152 147 158 q 120 163 94 161 q 77 160 64 154 q 50 147 38 140 q 55 194 70 252 q 84 309 97 367 z"}}}
